%TF.GenerationSoftware,KiCad,Pcbnew,10.0.2*%
%TF.CreationDate,2026-06-02T07:31:47-04:00*%
%TF.ProjectId,baby-remote,62616279-2d72-4656-9d6f-74652e6b6963,rev?*%
%TF.SameCoordinates,Original*%
%TF.FileFunction,Legend,Top*%
%TF.FilePolarity,Positive*%
%FSLAX46Y46*%
G04 Gerber Fmt 4.6, Leading zero omitted, Abs format (unit mm)*
G04 Created by KiCad (PCBNEW 10.0.2) date 2026-06-02 07:31:47*
%MOMM*%
%LPD*%
G01*
G04 APERTURE LIST*
%ADD10C,0.150000*%
%ADD11C,0.120000*%
G04 APERTURE END LIST*
D10*
X68940476Y-70907200D02*
X69083333Y-70954819D01*
X69083333Y-70954819D02*
X69321428Y-70954819D01*
X69321428Y-70954819D02*
X69416666Y-70907200D01*
X69416666Y-70907200D02*
X69464285Y-70859580D01*
X69464285Y-70859580D02*
X69511904Y-70764342D01*
X69511904Y-70764342D02*
X69511904Y-70669104D01*
X69511904Y-70669104D02*
X69464285Y-70573866D01*
X69464285Y-70573866D02*
X69416666Y-70526247D01*
X69416666Y-70526247D02*
X69321428Y-70478628D01*
X69321428Y-70478628D02*
X69130952Y-70431009D01*
X69130952Y-70431009D02*
X69035714Y-70383390D01*
X69035714Y-70383390D02*
X68988095Y-70335771D01*
X68988095Y-70335771D02*
X68940476Y-70240533D01*
X68940476Y-70240533D02*
X68940476Y-70145295D01*
X68940476Y-70145295D02*
X68988095Y-70050057D01*
X68988095Y-70050057D02*
X69035714Y-70002438D01*
X69035714Y-70002438D02*
X69130952Y-69954819D01*
X69130952Y-69954819D02*
X69369047Y-69954819D01*
X69369047Y-69954819D02*
X69511904Y-70002438D01*
X69845238Y-69954819D02*
X70083333Y-70954819D01*
X70083333Y-70954819D02*
X70273809Y-70240533D01*
X70273809Y-70240533D02*
X70464285Y-70954819D01*
X70464285Y-70954819D02*
X70702381Y-69954819D01*
X71607142Y-70954819D02*
X71035714Y-70954819D01*
X71321428Y-70954819D02*
X71321428Y-69954819D01*
X71321428Y-69954819D02*
X71226190Y-70097676D01*
X71226190Y-70097676D02*
X71130952Y-70192914D01*
X71130952Y-70192914D02*
X71035714Y-70240533D01*
X71988095Y-70050057D02*
X72035714Y-70002438D01*
X72035714Y-70002438D02*
X72130952Y-69954819D01*
X72130952Y-69954819D02*
X72369047Y-69954819D01*
X72369047Y-69954819D02*
X72464285Y-70002438D01*
X72464285Y-70002438D02*
X72511904Y-70050057D01*
X72511904Y-70050057D02*
X72559523Y-70145295D01*
X72559523Y-70145295D02*
X72559523Y-70240533D01*
X72559523Y-70240533D02*
X72511904Y-70383390D01*
X72511904Y-70383390D02*
X71940476Y-70954819D01*
X71940476Y-70954819D02*
X72559523Y-70954819D01*
X34940476Y-70907200D02*
X35083333Y-70954819D01*
X35083333Y-70954819D02*
X35321428Y-70954819D01*
X35321428Y-70954819D02*
X35416666Y-70907200D01*
X35416666Y-70907200D02*
X35464285Y-70859580D01*
X35464285Y-70859580D02*
X35511904Y-70764342D01*
X35511904Y-70764342D02*
X35511904Y-70669104D01*
X35511904Y-70669104D02*
X35464285Y-70573866D01*
X35464285Y-70573866D02*
X35416666Y-70526247D01*
X35416666Y-70526247D02*
X35321428Y-70478628D01*
X35321428Y-70478628D02*
X35130952Y-70431009D01*
X35130952Y-70431009D02*
X35035714Y-70383390D01*
X35035714Y-70383390D02*
X34988095Y-70335771D01*
X34988095Y-70335771D02*
X34940476Y-70240533D01*
X34940476Y-70240533D02*
X34940476Y-70145295D01*
X34940476Y-70145295D02*
X34988095Y-70050057D01*
X34988095Y-70050057D02*
X35035714Y-70002438D01*
X35035714Y-70002438D02*
X35130952Y-69954819D01*
X35130952Y-69954819D02*
X35369047Y-69954819D01*
X35369047Y-69954819D02*
X35511904Y-70002438D01*
X35845238Y-69954819D02*
X36083333Y-70954819D01*
X36083333Y-70954819D02*
X36273809Y-70240533D01*
X36273809Y-70240533D02*
X36464285Y-70954819D01*
X36464285Y-70954819D02*
X36702381Y-69954819D01*
X37607142Y-70954819D02*
X37035714Y-70954819D01*
X37321428Y-70954819D02*
X37321428Y-69954819D01*
X37321428Y-69954819D02*
X37226190Y-70097676D01*
X37226190Y-70097676D02*
X37130952Y-70192914D01*
X37130952Y-70192914D02*
X37035714Y-70240533D01*
X38226190Y-69954819D02*
X38321428Y-69954819D01*
X38321428Y-69954819D02*
X38416666Y-70002438D01*
X38416666Y-70002438D02*
X38464285Y-70050057D01*
X38464285Y-70050057D02*
X38511904Y-70145295D01*
X38511904Y-70145295D02*
X38559523Y-70335771D01*
X38559523Y-70335771D02*
X38559523Y-70573866D01*
X38559523Y-70573866D02*
X38511904Y-70764342D01*
X38511904Y-70764342D02*
X38464285Y-70859580D01*
X38464285Y-70859580D02*
X38416666Y-70907200D01*
X38416666Y-70907200D02*
X38321428Y-70954819D01*
X38321428Y-70954819D02*
X38226190Y-70954819D01*
X38226190Y-70954819D02*
X38130952Y-70907200D01*
X38130952Y-70907200D02*
X38083333Y-70859580D01*
X38083333Y-70859580D02*
X38035714Y-70764342D01*
X38035714Y-70764342D02*
X37988095Y-70573866D01*
X37988095Y-70573866D02*
X37988095Y-70335771D01*
X37988095Y-70335771D02*
X38035714Y-70145295D01*
X38035714Y-70145295D02*
X38083333Y-70050057D01*
X38083333Y-70050057D02*
X38130952Y-70002438D01*
X38130952Y-70002438D02*
X38226190Y-69954819D01*
X35416667Y-36907200D02*
X35559524Y-36954819D01*
X35559524Y-36954819D02*
X35797619Y-36954819D01*
X35797619Y-36954819D02*
X35892857Y-36907200D01*
X35892857Y-36907200D02*
X35940476Y-36859580D01*
X35940476Y-36859580D02*
X35988095Y-36764342D01*
X35988095Y-36764342D02*
X35988095Y-36669104D01*
X35988095Y-36669104D02*
X35940476Y-36573866D01*
X35940476Y-36573866D02*
X35892857Y-36526247D01*
X35892857Y-36526247D02*
X35797619Y-36478628D01*
X35797619Y-36478628D02*
X35607143Y-36431009D01*
X35607143Y-36431009D02*
X35511905Y-36383390D01*
X35511905Y-36383390D02*
X35464286Y-36335771D01*
X35464286Y-36335771D02*
X35416667Y-36240533D01*
X35416667Y-36240533D02*
X35416667Y-36145295D01*
X35416667Y-36145295D02*
X35464286Y-36050057D01*
X35464286Y-36050057D02*
X35511905Y-36002438D01*
X35511905Y-36002438D02*
X35607143Y-35954819D01*
X35607143Y-35954819D02*
X35845238Y-35954819D01*
X35845238Y-35954819D02*
X35988095Y-36002438D01*
X36321429Y-35954819D02*
X36559524Y-36954819D01*
X36559524Y-36954819D02*
X36750000Y-36240533D01*
X36750000Y-36240533D02*
X36940476Y-36954819D01*
X36940476Y-36954819D02*
X37178572Y-35954819D01*
X37511905Y-36050057D02*
X37559524Y-36002438D01*
X37559524Y-36002438D02*
X37654762Y-35954819D01*
X37654762Y-35954819D02*
X37892857Y-35954819D01*
X37892857Y-35954819D02*
X37988095Y-36002438D01*
X37988095Y-36002438D02*
X38035714Y-36050057D01*
X38035714Y-36050057D02*
X38083333Y-36145295D01*
X38083333Y-36145295D02*
X38083333Y-36240533D01*
X38083333Y-36240533D02*
X38035714Y-36383390D01*
X38035714Y-36383390D02*
X37464286Y-36954819D01*
X37464286Y-36954819D02*
X38083333Y-36954819D01*
X35416667Y-53907200D02*
X35559524Y-53954819D01*
X35559524Y-53954819D02*
X35797619Y-53954819D01*
X35797619Y-53954819D02*
X35892857Y-53907200D01*
X35892857Y-53907200D02*
X35940476Y-53859580D01*
X35940476Y-53859580D02*
X35988095Y-53764342D01*
X35988095Y-53764342D02*
X35988095Y-53669104D01*
X35988095Y-53669104D02*
X35940476Y-53573866D01*
X35940476Y-53573866D02*
X35892857Y-53526247D01*
X35892857Y-53526247D02*
X35797619Y-53478628D01*
X35797619Y-53478628D02*
X35607143Y-53431009D01*
X35607143Y-53431009D02*
X35511905Y-53383390D01*
X35511905Y-53383390D02*
X35464286Y-53335771D01*
X35464286Y-53335771D02*
X35416667Y-53240533D01*
X35416667Y-53240533D02*
X35416667Y-53145295D01*
X35416667Y-53145295D02*
X35464286Y-53050057D01*
X35464286Y-53050057D02*
X35511905Y-53002438D01*
X35511905Y-53002438D02*
X35607143Y-52954819D01*
X35607143Y-52954819D02*
X35845238Y-52954819D01*
X35845238Y-52954819D02*
X35988095Y-53002438D01*
X36321429Y-52954819D02*
X36559524Y-53954819D01*
X36559524Y-53954819D02*
X36750000Y-53240533D01*
X36750000Y-53240533D02*
X36940476Y-53954819D01*
X36940476Y-53954819D02*
X37178572Y-52954819D01*
X37988095Y-52954819D02*
X37797619Y-52954819D01*
X37797619Y-52954819D02*
X37702381Y-53002438D01*
X37702381Y-53002438D02*
X37654762Y-53050057D01*
X37654762Y-53050057D02*
X37559524Y-53192914D01*
X37559524Y-53192914D02*
X37511905Y-53383390D01*
X37511905Y-53383390D02*
X37511905Y-53764342D01*
X37511905Y-53764342D02*
X37559524Y-53859580D01*
X37559524Y-53859580D02*
X37607143Y-53907200D01*
X37607143Y-53907200D02*
X37702381Y-53954819D01*
X37702381Y-53954819D02*
X37892857Y-53954819D01*
X37892857Y-53954819D02*
X37988095Y-53907200D01*
X37988095Y-53907200D02*
X38035714Y-53859580D01*
X38035714Y-53859580D02*
X38083333Y-53764342D01*
X38083333Y-53764342D02*
X38083333Y-53526247D01*
X38083333Y-53526247D02*
X38035714Y-53431009D01*
X38035714Y-53431009D02*
X37988095Y-53383390D01*
X37988095Y-53383390D02*
X37892857Y-53335771D01*
X37892857Y-53335771D02*
X37702381Y-53335771D01*
X37702381Y-53335771D02*
X37607143Y-53383390D01*
X37607143Y-53383390D02*
X37559524Y-53431009D01*
X37559524Y-53431009D02*
X37511905Y-53526247D01*
X51940476Y-87907200D02*
X52083333Y-87954819D01*
X52083333Y-87954819D02*
X52321428Y-87954819D01*
X52321428Y-87954819D02*
X52416666Y-87907200D01*
X52416666Y-87907200D02*
X52464285Y-87859580D01*
X52464285Y-87859580D02*
X52511904Y-87764342D01*
X52511904Y-87764342D02*
X52511904Y-87669104D01*
X52511904Y-87669104D02*
X52464285Y-87573866D01*
X52464285Y-87573866D02*
X52416666Y-87526247D01*
X52416666Y-87526247D02*
X52321428Y-87478628D01*
X52321428Y-87478628D02*
X52130952Y-87431009D01*
X52130952Y-87431009D02*
X52035714Y-87383390D01*
X52035714Y-87383390D02*
X51988095Y-87335771D01*
X51988095Y-87335771D02*
X51940476Y-87240533D01*
X51940476Y-87240533D02*
X51940476Y-87145295D01*
X51940476Y-87145295D02*
X51988095Y-87050057D01*
X51988095Y-87050057D02*
X52035714Y-87002438D01*
X52035714Y-87002438D02*
X52130952Y-86954819D01*
X52130952Y-86954819D02*
X52369047Y-86954819D01*
X52369047Y-86954819D02*
X52511904Y-87002438D01*
X52845238Y-86954819D02*
X53083333Y-87954819D01*
X53083333Y-87954819D02*
X53273809Y-87240533D01*
X53273809Y-87240533D02*
X53464285Y-87954819D01*
X53464285Y-87954819D02*
X53702381Y-86954819D01*
X54607142Y-87954819D02*
X54035714Y-87954819D01*
X54321428Y-87954819D02*
X54321428Y-86954819D01*
X54321428Y-86954819D02*
X54226190Y-87097676D01*
X54226190Y-87097676D02*
X54130952Y-87192914D01*
X54130952Y-87192914D02*
X54035714Y-87240533D01*
X55511904Y-86954819D02*
X55035714Y-86954819D01*
X55035714Y-86954819D02*
X54988095Y-87431009D01*
X54988095Y-87431009D02*
X55035714Y-87383390D01*
X55035714Y-87383390D02*
X55130952Y-87335771D01*
X55130952Y-87335771D02*
X55369047Y-87335771D01*
X55369047Y-87335771D02*
X55464285Y-87383390D01*
X55464285Y-87383390D02*
X55511904Y-87431009D01*
X55511904Y-87431009D02*
X55559523Y-87526247D01*
X55559523Y-87526247D02*
X55559523Y-87764342D01*
X55559523Y-87764342D02*
X55511904Y-87859580D01*
X55511904Y-87859580D02*
X55464285Y-87907200D01*
X55464285Y-87907200D02*
X55369047Y-87954819D01*
X55369047Y-87954819D02*
X55130952Y-87954819D01*
X55130952Y-87954819D02*
X55035714Y-87907200D01*
X55035714Y-87907200D02*
X54988095Y-87859580D01*
X34940476Y-87907200D02*
X35083333Y-87954819D01*
X35083333Y-87954819D02*
X35321428Y-87954819D01*
X35321428Y-87954819D02*
X35416666Y-87907200D01*
X35416666Y-87907200D02*
X35464285Y-87859580D01*
X35464285Y-87859580D02*
X35511904Y-87764342D01*
X35511904Y-87764342D02*
X35511904Y-87669104D01*
X35511904Y-87669104D02*
X35464285Y-87573866D01*
X35464285Y-87573866D02*
X35416666Y-87526247D01*
X35416666Y-87526247D02*
X35321428Y-87478628D01*
X35321428Y-87478628D02*
X35130952Y-87431009D01*
X35130952Y-87431009D02*
X35035714Y-87383390D01*
X35035714Y-87383390D02*
X34988095Y-87335771D01*
X34988095Y-87335771D02*
X34940476Y-87240533D01*
X34940476Y-87240533D02*
X34940476Y-87145295D01*
X34940476Y-87145295D02*
X34988095Y-87050057D01*
X34988095Y-87050057D02*
X35035714Y-87002438D01*
X35035714Y-87002438D02*
X35130952Y-86954819D01*
X35130952Y-86954819D02*
X35369047Y-86954819D01*
X35369047Y-86954819D02*
X35511904Y-87002438D01*
X35845238Y-86954819D02*
X36083333Y-87954819D01*
X36083333Y-87954819D02*
X36273809Y-87240533D01*
X36273809Y-87240533D02*
X36464285Y-87954819D01*
X36464285Y-87954819D02*
X36702381Y-86954819D01*
X37607142Y-87954819D02*
X37035714Y-87954819D01*
X37321428Y-87954819D02*
X37321428Y-86954819D01*
X37321428Y-86954819D02*
X37226190Y-87097676D01*
X37226190Y-87097676D02*
X37130952Y-87192914D01*
X37130952Y-87192914D02*
X37035714Y-87240533D01*
X38464285Y-87288152D02*
X38464285Y-87954819D01*
X38226190Y-86907200D02*
X37988095Y-87621485D01*
X37988095Y-87621485D02*
X38607142Y-87621485D01*
X66380952Y-86454819D02*
X65904762Y-86454819D01*
X65904762Y-86454819D02*
X65904762Y-85454819D01*
X66714286Y-85931009D02*
X67047619Y-85931009D01*
X67190476Y-86454819D02*
X66714286Y-86454819D01*
X66714286Y-86454819D02*
X66714286Y-85454819D01*
X66714286Y-85454819D02*
X67190476Y-85454819D01*
X67619048Y-86454819D02*
X67619048Y-85454819D01*
X67619048Y-85454819D02*
X67857143Y-85454819D01*
X67857143Y-85454819D02*
X68000000Y-85502438D01*
X68000000Y-85502438D02*
X68095238Y-85597676D01*
X68095238Y-85597676D02*
X68142857Y-85692914D01*
X68142857Y-85692914D02*
X68190476Y-85883390D01*
X68190476Y-85883390D02*
X68190476Y-86026247D01*
X68190476Y-86026247D02*
X68142857Y-86216723D01*
X68142857Y-86216723D02*
X68095238Y-86311961D01*
X68095238Y-86311961D02*
X68000000Y-86407200D01*
X68000000Y-86407200D02*
X67857143Y-86454819D01*
X67857143Y-86454819D02*
X67619048Y-86454819D01*
X69142857Y-86454819D02*
X68571429Y-86454819D01*
X68857143Y-86454819D02*
X68857143Y-85454819D01*
X68857143Y-85454819D02*
X68761905Y-85597676D01*
X68761905Y-85597676D02*
X68666667Y-85692914D01*
X68666667Y-85692914D02*
X68571429Y-85740533D01*
X63728571Y-88262295D02*
X63271428Y-88262295D01*
X63500000Y-88262295D02*
X63500000Y-87462295D01*
X63500000Y-87462295D02*
X63423809Y-87576580D01*
X63423809Y-87576580D02*
X63347619Y-87652771D01*
X63347619Y-87652771D02*
X63271428Y-87690866D01*
X51940476Y-70907200D02*
X52083333Y-70954819D01*
X52083333Y-70954819D02*
X52321428Y-70954819D01*
X52321428Y-70954819D02*
X52416666Y-70907200D01*
X52416666Y-70907200D02*
X52464285Y-70859580D01*
X52464285Y-70859580D02*
X52511904Y-70764342D01*
X52511904Y-70764342D02*
X52511904Y-70669104D01*
X52511904Y-70669104D02*
X52464285Y-70573866D01*
X52464285Y-70573866D02*
X52416666Y-70526247D01*
X52416666Y-70526247D02*
X52321428Y-70478628D01*
X52321428Y-70478628D02*
X52130952Y-70431009D01*
X52130952Y-70431009D02*
X52035714Y-70383390D01*
X52035714Y-70383390D02*
X51988095Y-70335771D01*
X51988095Y-70335771D02*
X51940476Y-70240533D01*
X51940476Y-70240533D02*
X51940476Y-70145295D01*
X51940476Y-70145295D02*
X51988095Y-70050057D01*
X51988095Y-70050057D02*
X52035714Y-70002438D01*
X52035714Y-70002438D02*
X52130952Y-69954819D01*
X52130952Y-69954819D02*
X52369047Y-69954819D01*
X52369047Y-69954819D02*
X52511904Y-70002438D01*
X52845238Y-69954819D02*
X53083333Y-70954819D01*
X53083333Y-70954819D02*
X53273809Y-70240533D01*
X53273809Y-70240533D02*
X53464285Y-70954819D01*
X53464285Y-70954819D02*
X53702381Y-69954819D01*
X54607142Y-70954819D02*
X54035714Y-70954819D01*
X54321428Y-70954819D02*
X54321428Y-69954819D01*
X54321428Y-69954819D02*
X54226190Y-70097676D01*
X54226190Y-70097676D02*
X54130952Y-70192914D01*
X54130952Y-70192914D02*
X54035714Y-70240533D01*
X55559523Y-70954819D02*
X54988095Y-70954819D01*
X55273809Y-70954819D02*
X55273809Y-69954819D01*
X55273809Y-69954819D02*
X55178571Y-70097676D01*
X55178571Y-70097676D02*
X55083333Y-70192914D01*
X55083333Y-70192914D02*
X54988095Y-70240533D01*
X69416667Y-36907200D02*
X69559524Y-36954819D01*
X69559524Y-36954819D02*
X69797619Y-36954819D01*
X69797619Y-36954819D02*
X69892857Y-36907200D01*
X69892857Y-36907200D02*
X69940476Y-36859580D01*
X69940476Y-36859580D02*
X69988095Y-36764342D01*
X69988095Y-36764342D02*
X69988095Y-36669104D01*
X69988095Y-36669104D02*
X69940476Y-36573866D01*
X69940476Y-36573866D02*
X69892857Y-36526247D01*
X69892857Y-36526247D02*
X69797619Y-36478628D01*
X69797619Y-36478628D02*
X69607143Y-36431009D01*
X69607143Y-36431009D02*
X69511905Y-36383390D01*
X69511905Y-36383390D02*
X69464286Y-36335771D01*
X69464286Y-36335771D02*
X69416667Y-36240533D01*
X69416667Y-36240533D02*
X69416667Y-36145295D01*
X69416667Y-36145295D02*
X69464286Y-36050057D01*
X69464286Y-36050057D02*
X69511905Y-36002438D01*
X69511905Y-36002438D02*
X69607143Y-35954819D01*
X69607143Y-35954819D02*
X69845238Y-35954819D01*
X69845238Y-35954819D02*
X69988095Y-36002438D01*
X70321429Y-35954819D02*
X70559524Y-36954819D01*
X70559524Y-36954819D02*
X70750000Y-36240533D01*
X70750000Y-36240533D02*
X70940476Y-36954819D01*
X70940476Y-36954819D02*
X71178572Y-35954819D01*
X71988095Y-36288152D02*
X71988095Y-36954819D01*
X71750000Y-35907200D02*
X71511905Y-36621485D01*
X71511905Y-36621485D02*
X72130952Y-36621485D01*
X18416667Y-36907200D02*
X18559524Y-36954819D01*
X18559524Y-36954819D02*
X18797619Y-36954819D01*
X18797619Y-36954819D02*
X18892857Y-36907200D01*
X18892857Y-36907200D02*
X18940476Y-36859580D01*
X18940476Y-36859580D02*
X18988095Y-36764342D01*
X18988095Y-36764342D02*
X18988095Y-36669104D01*
X18988095Y-36669104D02*
X18940476Y-36573866D01*
X18940476Y-36573866D02*
X18892857Y-36526247D01*
X18892857Y-36526247D02*
X18797619Y-36478628D01*
X18797619Y-36478628D02*
X18607143Y-36431009D01*
X18607143Y-36431009D02*
X18511905Y-36383390D01*
X18511905Y-36383390D02*
X18464286Y-36335771D01*
X18464286Y-36335771D02*
X18416667Y-36240533D01*
X18416667Y-36240533D02*
X18416667Y-36145295D01*
X18416667Y-36145295D02*
X18464286Y-36050057D01*
X18464286Y-36050057D02*
X18511905Y-36002438D01*
X18511905Y-36002438D02*
X18607143Y-35954819D01*
X18607143Y-35954819D02*
X18845238Y-35954819D01*
X18845238Y-35954819D02*
X18988095Y-36002438D01*
X19321429Y-35954819D02*
X19559524Y-36954819D01*
X19559524Y-36954819D02*
X19750000Y-36240533D01*
X19750000Y-36240533D02*
X19940476Y-36954819D01*
X19940476Y-36954819D02*
X20178572Y-35954819D01*
X21083333Y-36954819D02*
X20511905Y-36954819D01*
X20797619Y-36954819D02*
X20797619Y-35954819D01*
X20797619Y-35954819D02*
X20702381Y-36097676D01*
X20702381Y-36097676D02*
X20607143Y-36192914D01*
X20607143Y-36192914D02*
X20511905Y-36240533D01*
X69416667Y-53907200D02*
X69559524Y-53954819D01*
X69559524Y-53954819D02*
X69797619Y-53954819D01*
X69797619Y-53954819D02*
X69892857Y-53907200D01*
X69892857Y-53907200D02*
X69940476Y-53859580D01*
X69940476Y-53859580D02*
X69988095Y-53764342D01*
X69988095Y-53764342D02*
X69988095Y-53669104D01*
X69988095Y-53669104D02*
X69940476Y-53573866D01*
X69940476Y-53573866D02*
X69892857Y-53526247D01*
X69892857Y-53526247D02*
X69797619Y-53478628D01*
X69797619Y-53478628D02*
X69607143Y-53431009D01*
X69607143Y-53431009D02*
X69511905Y-53383390D01*
X69511905Y-53383390D02*
X69464286Y-53335771D01*
X69464286Y-53335771D02*
X69416667Y-53240533D01*
X69416667Y-53240533D02*
X69416667Y-53145295D01*
X69416667Y-53145295D02*
X69464286Y-53050057D01*
X69464286Y-53050057D02*
X69511905Y-53002438D01*
X69511905Y-53002438D02*
X69607143Y-52954819D01*
X69607143Y-52954819D02*
X69845238Y-52954819D01*
X69845238Y-52954819D02*
X69988095Y-53002438D01*
X70321429Y-52954819D02*
X70559524Y-53954819D01*
X70559524Y-53954819D02*
X70750000Y-53240533D01*
X70750000Y-53240533D02*
X70940476Y-53954819D01*
X70940476Y-53954819D02*
X71178572Y-52954819D01*
X71702381Y-53383390D02*
X71607143Y-53335771D01*
X71607143Y-53335771D02*
X71559524Y-53288152D01*
X71559524Y-53288152D02*
X71511905Y-53192914D01*
X71511905Y-53192914D02*
X71511905Y-53145295D01*
X71511905Y-53145295D02*
X71559524Y-53050057D01*
X71559524Y-53050057D02*
X71607143Y-53002438D01*
X71607143Y-53002438D02*
X71702381Y-52954819D01*
X71702381Y-52954819D02*
X71892857Y-52954819D01*
X71892857Y-52954819D02*
X71988095Y-53002438D01*
X71988095Y-53002438D02*
X72035714Y-53050057D01*
X72035714Y-53050057D02*
X72083333Y-53145295D01*
X72083333Y-53145295D02*
X72083333Y-53192914D01*
X72083333Y-53192914D02*
X72035714Y-53288152D01*
X72035714Y-53288152D02*
X71988095Y-53335771D01*
X71988095Y-53335771D02*
X71892857Y-53383390D01*
X71892857Y-53383390D02*
X71702381Y-53383390D01*
X71702381Y-53383390D02*
X71607143Y-53431009D01*
X71607143Y-53431009D02*
X71559524Y-53478628D01*
X71559524Y-53478628D02*
X71511905Y-53573866D01*
X71511905Y-53573866D02*
X71511905Y-53764342D01*
X71511905Y-53764342D02*
X71559524Y-53859580D01*
X71559524Y-53859580D02*
X71607143Y-53907200D01*
X71607143Y-53907200D02*
X71702381Y-53954819D01*
X71702381Y-53954819D02*
X71892857Y-53954819D01*
X71892857Y-53954819D02*
X71988095Y-53907200D01*
X71988095Y-53907200D02*
X72035714Y-53859580D01*
X72035714Y-53859580D02*
X72083333Y-53764342D01*
X72083333Y-53764342D02*
X72083333Y-53573866D01*
X72083333Y-53573866D02*
X72035714Y-53478628D01*
X72035714Y-53478628D02*
X71988095Y-53431009D01*
X71988095Y-53431009D02*
X71892857Y-53383390D01*
X18416667Y-53907200D02*
X18559524Y-53954819D01*
X18559524Y-53954819D02*
X18797619Y-53954819D01*
X18797619Y-53954819D02*
X18892857Y-53907200D01*
X18892857Y-53907200D02*
X18940476Y-53859580D01*
X18940476Y-53859580D02*
X18988095Y-53764342D01*
X18988095Y-53764342D02*
X18988095Y-53669104D01*
X18988095Y-53669104D02*
X18940476Y-53573866D01*
X18940476Y-53573866D02*
X18892857Y-53526247D01*
X18892857Y-53526247D02*
X18797619Y-53478628D01*
X18797619Y-53478628D02*
X18607143Y-53431009D01*
X18607143Y-53431009D02*
X18511905Y-53383390D01*
X18511905Y-53383390D02*
X18464286Y-53335771D01*
X18464286Y-53335771D02*
X18416667Y-53240533D01*
X18416667Y-53240533D02*
X18416667Y-53145295D01*
X18416667Y-53145295D02*
X18464286Y-53050057D01*
X18464286Y-53050057D02*
X18511905Y-53002438D01*
X18511905Y-53002438D02*
X18607143Y-52954819D01*
X18607143Y-52954819D02*
X18845238Y-52954819D01*
X18845238Y-52954819D02*
X18988095Y-53002438D01*
X19321429Y-52954819D02*
X19559524Y-53954819D01*
X19559524Y-53954819D02*
X19750000Y-53240533D01*
X19750000Y-53240533D02*
X19940476Y-53954819D01*
X19940476Y-53954819D02*
X20178572Y-52954819D01*
X21035714Y-52954819D02*
X20559524Y-52954819D01*
X20559524Y-52954819D02*
X20511905Y-53431009D01*
X20511905Y-53431009D02*
X20559524Y-53383390D01*
X20559524Y-53383390D02*
X20654762Y-53335771D01*
X20654762Y-53335771D02*
X20892857Y-53335771D01*
X20892857Y-53335771D02*
X20988095Y-53383390D01*
X20988095Y-53383390D02*
X21035714Y-53431009D01*
X21035714Y-53431009D02*
X21083333Y-53526247D01*
X21083333Y-53526247D02*
X21083333Y-53764342D01*
X21083333Y-53764342D02*
X21035714Y-53859580D01*
X21035714Y-53859580D02*
X20988095Y-53907200D01*
X20988095Y-53907200D02*
X20892857Y-53954819D01*
X20892857Y-53954819D02*
X20654762Y-53954819D01*
X20654762Y-53954819D02*
X20559524Y-53907200D01*
X20559524Y-53907200D02*
X20511905Y-53859580D01*
X17940476Y-87907200D02*
X18083333Y-87954819D01*
X18083333Y-87954819D02*
X18321428Y-87954819D01*
X18321428Y-87954819D02*
X18416666Y-87907200D01*
X18416666Y-87907200D02*
X18464285Y-87859580D01*
X18464285Y-87859580D02*
X18511904Y-87764342D01*
X18511904Y-87764342D02*
X18511904Y-87669104D01*
X18511904Y-87669104D02*
X18464285Y-87573866D01*
X18464285Y-87573866D02*
X18416666Y-87526247D01*
X18416666Y-87526247D02*
X18321428Y-87478628D01*
X18321428Y-87478628D02*
X18130952Y-87431009D01*
X18130952Y-87431009D02*
X18035714Y-87383390D01*
X18035714Y-87383390D02*
X17988095Y-87335771D01*
X17988095Y-87335771D02*
X17940476Y-87240533D01*
X17940476Y-87240533D02*
X17940476Y-87145295D01*
X17940476Y-87145295D02*
X17988095Y-87050057D01*
X17988095Y-87050057D02*
X18035714Y-87002438D01*
X18035714Y-87002438D02*
X18130952Y-86954819D01*
X18130952Y-86954819D02*
X18369047Y-86954819D01*
X18369047Y-86954819D02*
X18511904Y-87002438D01*
X18845238Y-86954819D02*
X19083333Y-87954819D01*
X19083333Y-87954819D02*
X19273809Y-87240533D01*
X19273809Y-87240533D02*
X19464285Y-87954819D01*
X19464285Y-87954819D02*
X19702381Y-86954819D01*
X20607142Y-87954819D02*
X20035714Y-87954819D01*
X20321428Y-87954819D02*
X20321428Y-86954819D01*
X20321428Y-86954819D02*
X20226190Y-87097676D01*
X20226190Y-87097676D02*
X20130952Y-87192914D01*
X20130952Y-87192914D02*
X20035714Y-87240533D01*
X20940476Y-86954819D02*
X21559523Y-86954819D01*
X21559523Y-86954819D02*
X21226190Y-87335771D01*
X21226190Y-87335771D02*
X21369047Y-87335771D01*
X21369047Y-87335771D02*
X21464285Y-87383390D01*
X21464285Y-87383390D02*
X21511904Y-87431009D01*
X21511904Y-87431009D02*
X21559523Y-87526247D01*
X21559523Y-87526247D02*
X21559523Y-87764342D01*
X21559523Y-87764342D02*
X21511904Y-87859580D01*
X21511904Y-87859580D02*
X21464285Y-87907200D01*
X21464285Y-87907200D02*
X21369047Y-87954819D01*
X21369047Y-87954819D02*
X21083333Y-87954819D01*
X21083333Y-87954819D02*
X20988095Y-87907200D01*
X20988095Y-87907200D02*
X20940476Y-87859580D01*
X18416667Y-70907200D02*
X18559524Y-70954819D01*
X18559524Y-70954819D02*
X18797619Y-70954819D01*
X18797619Y-70954819D02*
X18892857Y-70907200D01*
X18892857Y-70907200D02*
X18940476Y-70859580D01*
X18940476Y-70859580D02*
X18988095Y-70764342D01*
X18988095Y-70764342D02*
X18988095Y-70669104D01*
X18988095Y-70669104D02*
X18940476Y-70573866D01*
X18940476Y-70573866D02*
X18892857Y-70526247D01*
X18892857Y-70526247D02*
X18797619Y-70478628D01*
X18797619Y-70478628D02*
X18607143Y-70431009D01*
X18607143Y-70431009D02*
X18511905Y-70383390D01*
X18511905Y-70383390D02*
X18464286Y-70335771D01*
X18464286Y-70335771D02*
X18416667Y-70240533D01*
X18416667Y-70240533D02*
X18416667Y-70145295D01*
X18416667Y-70145295D02*
X18464286Y-70050057D01*
X18464286Y-70050057D02*
X18511905Y-70002438D01*
X18511905Y-70002438D02*
X18607143Y-69954819D01*
X18607143Y-69954819D02*
X18845238Y-69954819D01*
X18845238Y-69954819D02*
X18988095Y-70002438D01*
X19321429Y-69954819D02*
X19559524Y-70954819D01*
X19559524Y-70954819D02*
X19750000Y-70240533D01*
X19750000Y-70240533D02*
X19940476Y-70954819D01*
X19940476Y-70954819D02*
X20178572Y-69954819D01*
X20607143Y-70954819D02*
X20797619Y-70954819D01*
X20797619Y-70954819D02*
X20892857Y-70907200D01*
X20892857Y-70907200D02*
X20940476Y-70859580D01*
X20940476Y-70859580D02*
X21035714Y-70716723D01*
X21035714Y-70716723D02*
X21083333Y-70526247D01*
X21083333Y-70526247D02*
X21083333Y-70145295D01*
X21083333Y-70145295D02*
X21035714Y-70050057D01*
X21035714Y-70050057D02*
X20988095Y-70002438D01*
X20988095Y-70002438D02*
X20892857Y-69954819D01*
X20892857Y-69954819D02*
X20702381Y-69954819D01*
X20702381Y-69954819D02*
X20607143Y-70002438D01*
X20607143Y-70002438D02*
X20559524Y-70050057D01*
X20559524Y-70050057D02*
X20511905Y-70145295D01*
X20511905Y-70145295D02*
X20511905Y-70383390D01*
X20511905Y-70383390D02*
X20559524Y-70478628D01*
X20559524Y-70478628D02*
X20607143Y-70526247D01*
X20607143Y-70526247D02*
X20702381Y-70573866D01*
X20702381Y-70573866D02*
X20892857Y-70573866D01*
X20892857Y-70573866D02*
X20988095Y-70526247D01*
X20988095Y-70526247D02*
X21035714Y-70478628D01*
X21035714Y-70478628D02*
X21083333Y-70383390D01*
X59523095Y197680D02*
X59523095Y-611842D01*
X59523095Y-611842D02*
X59570714Y-707080D01*
X59570714Y-707080D02*
X59618333Y-754700D01*
X59618333Y-754700D02*
X59713571Y-802319D01*
X59713571Y-802319D02*
X59904047Y-802319D01*
X59904047Y-802319D02*
X59999285Y-754700D01*
X59999285Y-754700D02*
X60046904Y-707080D01*
X60046904Y-707080D02*
X60094523Y-611842D01*
X60094523Y-611842D02*
X60094523Y197680D01*
X61094523Y-802319D02*
X60523095Y-802319D01*
X60808809Y-802319D02*
X60808809Y197680D01*
X60808809Y197680D02*
X60713571Y54823D01*
X60713571Y54823D02*
X60618333Y-40414D01*
X60618333Y-40414D02*
X60523095Y-88033D01*
X52416667Y-53907200D02*
X52559524Y-53954819D01*
X52559524Y-53954819D02*
X52797619Y-53954819D01*
X52797619Y-53954819D02*
X52892857Y-53907200D01*
X52892857Y-53907200D02*
X52940476Y-53859580D01*
X52940476Y-53859580D02*
X52988095Y-53764342D01*
X52988095Y-53764342D02*
X52988095Y-53669104D01*
X52988095Y-53669104D02*
X52940476Y-53573866D01*
X52940476Y-53573866D02*
X52892857Y-53526247D01*
X52892857Y-53526247D02*
X52797619Y-53478628D01*
X52797619Y-53478628D02*
X52607143Y-53431009D01*
X52607143Y-53431009D02*
X52511905Y-53383390D01*
X52511905Y-53383390D02*
X52464286Y-53335771D01*
X52464286Y-53335771D02*
X52416667Y-53240533D01*
X52416667Y-53240533D02*
X52416667Y-53145295D01*
X52416667Y-53145295D02*
X52464286Y-53050057D01*
X52464286Y-53050057D02*
X52511905Y-53002438D01*
X52511905Y-53002438D02*
X52607143Y-52954819D01*
X52607143Y-52954819D02*
X52845238Y-52954819D01*
X52845238Y-52954819D02*
X52988095Y-53002438D01*
X53321429Y-52954819D02*
X53559524Y-53954819D01*
X53559524Y-53954819D02*
X53750000Y-53240533D01*
X53750000Y-53240533D02*
X53940476Y-53954819D01*
X53940476Y-53954819D02*
X54178572Y-52954819D01*
X54464286Y-52954819D02*
X55130952Y-52954819D01*
X55130952Y-52954819D02*
X54702381Y-53954819D01*
X52416667Y-36907200D02*
X52559524Y-36954819D01*
X52559524Y-36954819D02*
X52797619Y-36954819D01*
X52797619Y-36954819D02*
X52892857Y-36907200D01*
X52892857Y-36907200D02*
X52940476Y-36859580D01*
X52940476Y-36859580D02*
X52988095Y-36764342D01*
X52988095Y-36764342D02*
X52988095Y-36669104D01*
X52988095Y-36669104D02*
X52940476Y-36573866D01*
X52940476Y-36573866D02*
X52892857Y-36526247D01*
X52892857Y-36526247D02*
X52797619Y-36478628D01*
X52797619Y-36478628D02*
X52607143Y-36431009D01*
X52607143Y-36431009D02*
X52511905Y-36383390D01*
X52511905Y-36383390D02*
X52464286Y-36335771D01*
X52464286Y-36335771D02*
X52416667Y-36240533D01*
X52416667Y-36240533D02*
X52416667Y-36145295D01*
X52416667Y-36145295D02*
X52464286Y-36050057D01*
X52464286Y-36050057D02*
X52511905Y-36002438D01*
X52511905Y-36002438D02*
X52607143Y-35954819D01*
X52607143Y-35954819D02*
X52845238Y-35954819D01*
X52845238Y-35954819D02*
X52988095Y-36002438D01*
X53321429Y-35954819D02*
X53559524Y-36954819D01*
X53559524Y-36954819D02*
X53750000Y-36240533D01*
X53750000Y-36240533D02*
X53940476Y-36954819D01*
X53940476Y-36954819D02*
X54178572Y-35954819D01*
X54464286Y-35954819D02*
X55083333Y-35954819D01*
X55083333Y-35954819D02*
X54750000Y-36335771D01*
X54750000Y-36335771D02*
X54892857Y-36335771D01*
X54892857Y-36335771D02*
X54988095Y-36383390D01*
X54988095Y-36383390D02*
X55035714Y-36431009D01*
X55035714Y-36431009D02*
X55083333Y-36526247D01*
X55083333Y-36526247D02*
X55083333Y-36764342D01*
X55083333Y-36764342D02*
X55035714Y-36859580D01*
X55035714Y-36859580D02*
X54988095Y-36907200D01*
X54988095Y-36907200D02*
X54892857Y-36954819D01*
X54892857Y-36954819D02*
X54607143Y-36954819D01*
X54607143Y-36954819D02*
X54511905Y-36907200D01*
X54511905Y-36907200D02*
X54464286Y-36859580D01*
%TO.C,SW12*%
D11*
X67250000Y-74000000D02*
X67250000Y-75500000D01*
X68500000Y-78000000D02*
X73000000Y-78000000D01*
X73000000Y-71500000D02*
X68500000Y-71500000D01*
X74250000Y-75500000D02*
X74250000Y-74000000D01*
%TO.C,SW10*%
X33250000Y-74000000D02*
X33250000Y-75500000D01*
X34500000Y-78000000D02*
X39000000Y-78000000D01*
X39000000Y-71500000D02*
X34500000Y-71500000D01*
X40250000Y-75500000D02*
X40250000Y-74000000D01*
%TO.C,SW2*%
X33250000Y-40000000D02*
X33250000Y-41500000D01*
X34500000Y-44000000D02*
X39000000Y-44000000D01*
X39000000Y-37500000D02*
X34500000Y-37500000D01*
X40250000Y-41500000D02*
X40250000Y-40000000D01*
%TO.C,SW6*%
X33250000Y-57000000D02*
X33250000Y-58500000D01*
X34500000Y-61000000D02*
X39000000Y-61000000D01*
X39000000Y-54500000D02*
X34500000Y-54500000D01*
X40250000Y-58500000D02*
X40250000Y-57000000D01*
%TO.C,SW15*%
X50250000Y-91000000D02*
X50250000Y-92500000D01*
X51500000Y-95000000D02*
X56000000Y-95000000D01*
X56000000Y-88500000D02*
X51500000Y-88500000D01*
X57250000Y-92500000D02*
X57250000Y-91000000D01*
%TO.C,SW14*%
X33250000Y-91000000D02*
X33250000Y-92500000D01*
X34500000Y-95000000D02*
X39000000Y-95000000D01*
X39000000Y-88500000D02*
X34500000Y-88500000D01*
X40250000Y-92500000D02*
X40250000Y-91000000D01*
%TO.C,LED1*%
X64000000Y-86750000D02*
X64000000Y-92250000D01*
X64000000Y-86750000D02*
X71000000Y-86750000D01*
X64000000Y-92250000D02*
X70550000Y-92250000D01*
X64800000Y-90400000D02*
X64800000Y-88600000D01*
X70200000Y-90400000D02*
X70200000Y-88600000D01*
X70550000Y-92250000D02*
X71000000Y-91800000D01*
X71000000Y-91800000D02*
X71000000Y-86750000D01*
%TO.C,SW11*%
X50250000Y-74000000D02*
X50250000Y-75500000D01*
X51500000Y-78000000D02*
X56000000Y-78000000D01*
X56000000Y-71500000D02*
X51500000Y-71500000D01*
X57250000Y-75500000D02*
X57250000Y-74000000D01*
%TO.C,SW4*%
X67250000Y-40000000D02*
X67250000Y-41500000D01*
X68500000Y-44000000D02*
X73000000Y-44000000D01*
X73000000Y-37500000D02*
X68500000Y-37500000D01*
X74250000Y-41500000D02*
X74250000Y-40000000D01*
%TO.C,SW1*%
X16250000Y-40000000D02*
X16250000Y-41500000D01*
X17500000Y-44000000D02*
X22000000Y-44000000D01*
X22000000Y-37500000D02*
X17500000Y-37500000D01*
X23250000Y-41500000D02*
X23250000Y-40000000D01*
%TO.C,SW8*%
X67250000Y-57000000D02*
X67250000Y-58500000D01*
X68500000Y-61000000D02*
X73000000Y-61000000D01*
X73000000Y-54500000D02*
X68500000Y-54500000D01*
X74250000Y-58500000D02*
X74250000Y-57000000D01*
%TO.C,SW5*%
X16250000Y-57000000D02*
X16250000Y-58500000D01*
X17500000Y-61000000D02*
X22000000Y-61000000D01*
X22000000Y-54500000D02*
X17500000Y-54500000D01*
X23250000Y-58500000D02*
X23250000Y-57000000D01*
%TO.C,SW13*%
X16250000Y-91000000D02*
X16250000Y-92500000D01*
X17500000Y-95000000D02*
X22000000Y-95000000D01*
X22000000Y-88500000D02*
X17500000Y-88500000D01*
X23250000Y-92500000D02*
X23250000Y-91000000D01*
%TO.C,SW9*%
X16250000Y-74000000D02*
X16250000Y-75500000D01*
X17500000Y-78000000D02*
X22000000Y-78000000D01*
X22000000Y-71500000D02*
X17500000Y-71500000D01*
X23250000Y-75500000D02*
X23250000Y-74000000D01*
%TO.C,SW7*%
X50250000Y-57000000D02*
X50250000Y-58500000D01*
X51500000Y-61000000D02*
X56000000Y-61000000D01*
X56000000Y-54500000D02*
X51500000Y-54500000D01*
X57250000Y-58500000D02*
X57250000Y-57000000D01*
%TO.C,SW3*%
X50250000Y-40000000D02*
X50250000Y-41500000D01*
X51500000Y-44000000D02*
X56000000Y-44000000D01*
X56000000Y-37500000D02*
X51500000Y-37500000D01*
X57250000Y-41500000D02*
X57250000Y-40000000D01*
%TD*%
M02*
