M48
; DRILL file KiCad 10.0.2 date 2026-06-02T07:31:48
; FORMAT={-:-/ absolute / metric / decimal}
; #@! TF.CreationDate,2026-06-02T07:31:48-04:00
; #@! TF.GenerationSoftware,Kicad,Pcbnew,10.0.2
; #@! TF.FileFunction,MixedPlating,1,2
FMAT,2
METRIC
; #@! TA.AperFunction,Plated,PTH,ViaDrill
T1C0.400
; #@! TA.AperFunction,Plated,PTH,ComponentDrill
T2C1.100
%
G90
G05
T1
X25.97Y-40.925
X50.827Y-29.556
X62.793Y-44.24
X64.602Y-82.022
X66.52Y-82.022
X69.709Y-90.1
X77.875Y-6.28
T2
X16.5Y-38.5
X16.5Y-43.0
X16.5Y-55.5
X16.5Y-60.0
X16.5Y-72.5
X16.5Y-77.0
X16.5Y-89.5
X16.5Y-94.0
X23.0Y-38.5
X23.0Y-43.0
X23.0Y-55.5
X23.0Y-60.0
X23.0Y-72.5
X23.0Y-77.0
X23.0Y-89.5
X23.0Y-94.0
X33.5Y-38.5
X33.5Y-43.0
X33.5Y-55.5
X33.5Y-60.0
X33.5Y-72.5
X33.5Y-77.0
X33.5Y-89.5
X33.5Y-94.0
X40.0Y-38.5
X40.0Y-43.0
X40.0Y-55.5
X40.0Y-60.0
X40.0Y-72.5
X40.0Y-77.0
X40.0Y-89.5
X40.0Y-94.0
X50.5Y-38.5
X50.5Y-43.0
X50.5Y-55.5
X50.5Y-60.0
X50.5Y-72.5
X50.5Y-77.0
X50.5Y-89.5
X50.5Y-94.0
X57.0Y-38.5
X57.0Y-43.0
X57.0Y-55.5
X57.0Y-60.0
X57.0Y-72.5
X57.0Y-77.0
X57.0Y-89.5
X57.0Y-94.0
X67.5Y-38.5
X67.5Y-43.0
X67.5Y-55.5
X67.5Y-60.0
X67.5Y-72.5
X67.5Y-77.0
X74.0Y-38.5
X74.0Y-43.0
X74.0Y-55.5
X74.0Y-60.0
X74.0Y-72.5
X74.0Y-77.0
M30
