%TF.GenerationSoftware,KiCad,Pcbnew,10.0.2*%
%TF.CreationDate,2026-06-02T07:31:47-04:00*%
%TF.ProjectId,baby-remote,62616279-2d72-4656-9d6f-74652e6b6963,rev?*%
%TF.SameCoordinates,Original*%
%TF.FileFunction,Soldermask,Bot*%
%TF.FilePolarity,Negative*%
%FSLAX46Y46*%
G04 Gerber Fmt 4.6, Leading zero omitted, Abs format (unit mm)*
G04 Created by KiCad (PCBNEW 10.0.2) date 2026-06-02 07:31:47*
%MOMM*%
%LPD*%
G01*
G04 APERTURE LIST*
%ADD10C,2.000000*%
G04 APERTURE END LIST*
D10*
%TO.C,SW12*%
X67500000Y-72500000D03*
X74000000Y-72500000D03*
X67500000Y-77000000D03*
X74000000Y-77000000D03*
%TD*%
%TO.C,SW10*%
X33500000Y-72500000D03*
X40000000Y-72500000D03*
X33500000Y-77000000D03*
X40000000Y-77000000D03*
%TD*%
%TO.C,SW2*%
X33500000Y-38500000D03*
X40000000Y-38500000D03*
X33500000Y-43000000D03*
X40000000Y-43000000D03*
%TD*%
%TO.C,SW6*%
X33500000Y-55500000D03*
X40000000Y-55500000D03*
X33500000Y-60000000D03*
X40000000Y-60000000D03*
%TD*%
%TO.C,SW15*%
X50500000Y-89500000D03*
X57000000Y-89500000D03*
X50500000Y-94000000D03*
X57000000Y-94000000D03*
%TD*%
%TO.C,SW14*%
X33500000Y-89500000D03*
X40000000Y-89500000D03*
X33500000Y-94000000D03*
X40000000Y-94000000D03*
%TD*%
%TO.C,SW11*%
X50500000Y-72500000D03*
X57000000Y-72500000D03*
X50500000Y-77000000D03*
X57000000Y-77000000D03*
%TD*%
%TO.C,SW4*%
X67500000Y-38500000D03*
X74000000Y-38500000D03*
X67500000Y-43000000D03*
X74000000Y-43000000D03*
%TD*%
%TO.C,SW1*%
X16500000Y-38500000D03*
X23000000Y-38500000D03*
X16500000Y-43000000D03*
X23000000Y-43000000D03*
%TD*%
%TO.C,SW8*%
X67500000Y-55500000D03*
X74000000Y-55500000D03*
X67500000Y-60000000D03*
X74000000Y-60000000D03*
%TD*%
%TO.C,SW5*%
X16500000Y-55500000D03*
X23000000Y-55500000D03*
X16500000Y-60000000D03*
X23000000Y-60000000D03*
%TD*%
%TO.C,SW13*%
X16500000Y-89500000D03*
X23000000Y-89500000D03*
X16500000Y-94000000D03*
X23000000Y-94000000D03*
%TD*%
%TO.C,SW9*%
X16500000Y-72500000D03*
X23000000Y-72500000D03*
X16500000Y-77000000D03*
X23000000Y-77000000D03*
%TD*%
%TO.C,SW7*%
X50500000Y-55500000D03*
X57000000Y-55500000D03*
X50500000Y-60000000D03*
X57000000Y-60000000D03*
%TD*%
%TO.C,SW3*%
X50500000Y-38500000D03*
X57000000Y-38500000D03*
X50500000Y-43000000D03*
X57000000Y-43000000D03*
%TD*%
M02*
