%TF.GenerationSoftware,KiCad,Pcbnew,10.0.2*%
%TF.CreationDate,2026-06-02T07:31:47-04:00*%
%TF.ProjectId,baby-remote,62616279-2d72-4656-9d6f-74652e6b6963,rev?*%
%TF.SameCoordinates,Original*%
%TF.FileFunction,Copper,L1,Top*%
%TF.FilePolarity,Positive*%
%FSLAX46Y46*%
G04 Gerber Fmt 4.6, Leading zero omitted, Abs format (unit mm)*
G04 Created by KiCad (PCBNEW 10.0.2) date 2026-06-02 07:31:47*
%MOMM*%
%LPD*%
G01*
G04 APERTURE LIST*
G04 Aperture macros list*
%AMRoundRect*
0 Rectangle with rounded corners*
0 $1 Rounding radius*
0 $2 $3 $4 $5 $6 $7 $8 $9 X,Y pos of 4 corners*
0 Add a 4 corners polygon primitive as box body*
4,1,4,$2,$3,$4,$5,$6,$7,$8,$9,$2,$3,0*
0 Add four circle primitives for the rounded corners*
1,1,$1+$1,$2,$3*
1,1,$1+$1,$4,$5*
1,1,$1+$1,$6,$7*
1,1,$1+$1,$8,$9*
0 Add four rect primitives between the rounded corners*
20,1,$1+$1,$2,$3,$4,$5,0*
20,1,$1+$1,$4,$5,$6,$7,0*
20,1,$1+$1,$6,$7,$8,$9,0*
20,1,$1+$1,$8,$9,$2,$3,0*%
G04 Aperture macros list end*
%TA.AperFunction,ComponentPad*%
%ADD10C,2.000000*%
%TD*%
%TA.AperFunction,SMDPad,CuDef*%
%ADD11RoundRect,0.090000X-0.660000X-0.360000X0.660000X-0.360000X0.660000X0.360000X-0.660000X0.360000X0*%
%TD*%
%TA.AperFunction,SMDPad,CuDef*%
%ADD12R,6.000000X1.905000*%
%TD*%
%TA.AperFunction,ViaPad*%
%ADD13C,0.600000*%
%TD*%
%TA.AperFunction,Conductor*%
%ADD14C,0.250000*%
%TD*%
G04 APERTURE END LIST*
D10*
%TO.P,SW12,1*%
%TO.N,/ROW2*%
X67500000Y-72500000D03*
X74000000Y-72500000D03*
%TO.P,SW12,2*%
%TO.N,/COL3*%
X67500000Y-77000000D03*
X74000000Y-77000000D03*
%TD*%
%TO.P,SW10,1*%
%TO.N,/ROW2*%
X33500000Y-72500000D03*
X40000000Y-72500000D03*
%TO.P,SW10,2*%
%TO.N,/COL1*%
X33500000Y-77000000D03*
X40000000Y-77000000D03*
%TD*%
%TO.P,SW2,1*%
%TO.N,/ROW0*%
X33500000Y-38500000D03*
X40000000Y-38500000D03*
%TO.P,SW2,2*%
%TO.N,/COL1*%
X33500000Y-43000000D03*
X40000000Y-43000000D03*
%TD*%
%TO.P,SW6,1*%
%TO.N,/ROW1*%
X33500000Y-55500000D03*
X40000000Y-55500000D03*
%TO.P,SW6,2*%
%TO.N,/COL1*%
X33500000Y-60000000D03*
X40000000Y-60000000D03*
%TD*%
%TO.P,SW15,1*%
%TO.N,/ROW3*%
X50500000Y-89500000D03*
X57000000Y-89500000D03*
%TO.P,SW15,2*%
%TO.N,/COL2*%
X50500000Y-94000000D03*
X57000000Y-94000000D03*
%TD*%
%TO.P,SW14,1*%
%TO.N,/ROW3*%
X33500000Y-89500000D03*
X40000000Y-89500000D03*
%TO.P,SW14,2*%
%TO.N,/COL1*%
X33500000Y-94000000D03*
X40000000Y-94000000D03*
%TD*%
D11*
%TO.P,LED1,1*%
%TO.N,/+5V*%
X65050000Y-87850000D03*
%TO.P,LED1,2*%
%TO.N,unconnected-(LED1-DOUT-Pad2)*%
X65050000Y-91150000D03*
%TO.P,LED1,3*%
%TO.N,/GND*%
X69950000Y-91150000D03*
%TO.P,LED1,4*%
%TO.N,/LED_DIN*%
X69950000Y-87850000D03*
%TD*%
D10*
%TO.P,SW11,1*%
%TO.N,/ROW2*%
X50500000Y-72500000D03*
X57000000Y-72500000D03*
%TO.P,SW11,2*%
%TO.N,/COL2*%
X50500000Y-77000000D03*
X57000000Y-77000000D03*
%TD*%
%TO.P,SW4,1*%
%TO.N,/ROW0*%
X67500000Y-38500000D03*
X74000000Y-38500000D03*
%TO.P,SW4,2*%
%TO.N,/COL3*%
X67500000Y-43000000D03*
X74000000Y-43000000D03*
%TD*%
%TO.P,SW1,1*%
%TO.N,/ROW0*%
X16500000Y-38500000D03*
X23000000Y-38500000D03*
%TO.P,SW1,2*%
%TO.N,/COL0*%
X16500000Y-43000000D03*
X23000000Y-43000000D03*
%TD*%
%TO.P,SW8,1*%
%TO.N,/ROW1*%
X67500000Y-55500000D03*
X74000000Y-55500000D03*
%TO.P,SW8,2*%
%TO.N,/COL3*%
X67500000Y-60000000D03*
X74000000Y-60000000D03*
%TD*%
%TO.P,SW5,1*%
%TO.N,/ROW1*%
X16500000Y-55500000D03*
X23000000Y-55500000D03*
%TO.P,SW5,2*%
%TO.N,/COL0*%
X16500000Y-60000000D03*
X23000000Y-60000000D03*
%TD*%
%TO.P,SW13,1*%
%TO.N,/ROW3*%
X16500000Y-89500000D03*
X23000000Y-89500000D03*
%TO.P,SW13,2*%
%TO.N,/COL0*%
X16500000Y-94000000D03*
X23000000Y-94000000D03*
%TD*%
%TO.P,SW9,1*%
%TO.N,/ROW2*%
X16500000Y-72500000D03*
X23000000Y-72500000D03*
%TO.P,SW9,2*%
%TO.N,/COL0*%
X16500000Y-77000000D03*
X23000000Y-77000000D03*
%TD*%
D12*
%TO.P,U1,0*%
%TO.N,/ROW0*%
X73620000Y-21880000D03*
%TO.P,U1,1*%
%TO.N,/ROW1*%
X73620000Y-19340000D03*
%TO.P,U1,2*%
%TO.N,unconnected-(U1-GPIO2-Pad2)*%
X73620000Y-16800000D03*
%TO.P,U1,3*%
%TO.N,/ROW2*%
X73620000Y-14260000D03*
%TO.P,U1,3.3*%
%TO.N,/+3V3*%
X73620000Y-9180000D03*
%TO.P,U1,4*%
%TO.N,/ROW3*%
X73620000Y-11720000D03*
%TO.P,U1,5*%
%TO.N,/COL0*%
X58380000Y-4100000D03*
%TO.P,U1,5V*%
%TO.N,/+5V*%
X73620000Y-4100000D03*
%TO.P,U1,6*%
%TO.N,/COL1*%
X58380000Y-6640000D03*
%TO.P,U1,7*%
%TO.N,/COL2*%
X58380000Y-9180000D03*
%TO.P,U1,8*%
%TO.N,/LED_DIN*%
X58380000Y-11720000D03*
%TO.P,U1,9*%
%TO.N,unconnected-(U1-GPIO9-Pad9)*%
X58380000Y-14260000D03*
%TO.P,U1,10*%
%TO.N,/COL3*%
X58380000Y-16800000D03*
%TO.P,U1,20*%
%TO.N,unconnected-(U1-GPIO20-Pad20)*%
X58380000Y-19340000D03*
%TO.P,U1,21*%
%TO.N,unconnected-(U1-GPIO21-Pad21)*%
X58380000Y-21880000D03*
%TO.P,U1,G*%
%TO.N,/GND*%
X73620000Y-6640000D03*
%TD*%
D10*
%TO.P,SW7,1*%
%TO.N,/ROW1*%
X50500000Y-55500000D03*
X57000000Y-55500000D03*
%TO.P,SW7,2*%
%TO.N,/COL2*%
X50500000Y-60000000D03*
X57000000Y-60000000D03*
%TD*%
%TO.P,SW3,1*%
%TO.N,/ROW0*%
X50500000Y-38500000D03*
X57000000Y-38500000D03*
%TO.P,SW3,2*%
%TO.N,/COL2*%
X50500000Y-43000000D03*
X57000000Y-43000000D03*
%TD*%
D13*
%TO.N,/COL3*%
X62793200Y-44240000D03*
%TO.N,/ROW0*%
X25969500Y-40924700D03*
%TO.N,/GND*%
X69709500Y-90099800D03*
X77875200Y-6280000D03*
%TO.N,/LED_DIN*%
X66519700Y-82022000D03*
X64601700Y-82022000D03*
%TO.N,/COL0*%
X50827400Y-29555800D03*
%TD*%
%TO.N,/ROW2*%
D14*
X73620000Y-14260000D02*
X76946700Y-14260000D01*
X76946700Y-69553300D02*
X74000000Y-72500000D01*
X76946700Y-14260000D02*
X76946700Y-69553300D01*
%TO.N,/COL3*%
X61706700Y-43153500D02*
X62793200Y-44240000D01*
X66117300Y-61382700D02*
X67500000Y-60000000D01*
X61706700Y-16800000D02*
X61706700Y-43153500D01*
X67500000Y-77000000D02*
X66117300Y-75617300D01*
X75390100Y-44390100D02*
X74000000Y-43000000D01*
X66117300Y-75617300D02*
X66117300Y-61382700D01*
X75390100Y-58609900D02*
X75390100Y-44390100D01*
X74000000Y-60000000D02*
X75390100Y-58609900D01*
X58380000Y-16800000D02*
X61706700Y-16800000D01*
%TO.N,/COL1*%
X58380000Y-6640000D02*
X55053300Y-6640000D01*
X34846500Y-60000000D02*
X34846500Y-75653500D01*
X38673300Y-78326700D02*
X40000000Y-77000000D01*
X38673300Y-92673300D02*
X38673300Y-78326700D01*
X40000000Y-94000000D02*
X38673300Y-92673300D01*
X34846500Y-60000000D02*
X33500000Y-60000000D01*
X34846500Y-75653500D02*
X33500000Y-77000000D01*
X55053300Y-6640000D02*
X53001400Y-8691900D01*
X34846500Y-44346500D02*
X34846500Y-60000000D01*
X53001400Y-8691900D02*
X53001400Y-29998600D01*
X53001400Y-29998600D02*
X40000000Y-43000000D01*
X33500000Y-43000000D02*
X34846500Y-44346500D01*
%TO.N,/ROW0*%
X23000000Y-38500000D02*
X25424700Y-40924700D01*
X25424700Y-40924700D02*
X25969500Y-40924700D01*
X73620000Y-21880000D02*
X74000000Y-22260000D01*
X74000000Y-22260000D02*
X74000000Y-38500000D01*
%TO.N,/ROW1*%
X67500000Y-55500000D02*
X70293300Y-52706700D01*
X70293300Y-52706700D02*
X70293300Y-19340000D01*
X73620000Y-19340000D02*
X70293300Y-19340000D01*
%TO.N,/ROW3*%
X73620000Y-11720000D02*
X70293300Y-11720000D01*
X57000000Y-89500000D02*
X65072300Y-89500000D01*
X65665600Y-81560800D02*
X65665600Y-16347700D01*
X65072300Y-89500000D02*
X66127000Y-88445300D01*
X66127000Y-88445300D02*
X66127000Y-83890400D01*
X65680100Y-83443500D02*
X65680100Y-81575300D01*
X65665600Y-16347700D02*
X70293300Y-11720000D01*
X65680100Y-81575300D02*
X65665600Y-81560800D01*
X66127000Y-83890400D02*
X65680100Y-83443500D01*
%TO.N,/COL2*%
X57000000Y-43000000D02*
X58372300Y-44372300D01*
X55053300Y-41053300D02*
X55053300Y-9180000D01*
X51846500Y-92653500D02*
X51846500Y-78346500D01*
X57000000Y-43000000D02*
X55053300Y-41053300D01*
X51846500Y-78346500D02*
X50500000Y-77000000D01*
X58380000Y-9180000D02*
X55053300Y-9180000D01*
X50500000Y-94000000D02*
X51846500Y-92653500D01*
X58372300Y-75627700D02*
X57000000Y-77000000D01*
X57000000Y-60000000D02*
X58372300Y-60000000D01*
X58372300Y-60000000D02*
X58372300Y-75627700D01*
X58372300Y-44372300D02*
X58372300Y-60000000D01*
%TO.N,/+5V*%
X73620000Y-4100000D02*
X70293300Y-4100000D01*
X65050000Y-87850000D02*
X65228400Y-87671600D01*
X65228400Y-81762400D02*
X65050000Y-81584000D01*
X65050000Y-9343300D02*
X70293300Y-4100000D01*
X65050000Y-81584000D02*
X65050000Y-9343300D01*
X65228400Y-87671600D02*
X65228400Y-81762400D01*
%TO.N,/GND*%
X77875200Y-6280000D02*
X77306700Y-6280000D01*
X69950000Y-90340300D02*
X69950000Y-91150000D01*
X77306700Y-6280000D02*
X76946700Y-6640000D01*
X73620000Y-6640000D02*
X76946700Y-6640000D01*
X69709500Y-90099800D02*
X69950000Y-90340300D01*
%TO.N,/LED_DIN*%
X64601700Y-82022000D02*
X64168400Y-81588700D01*
X69950000Y-85452300D02*
X66519700Y-82022000D01*
X64168400Y-14181700D02*
X61706700Y-11720000D01*
X58380000Y-11720000D02*
X61706700Y-11720000D01*
X69950000Y-87850000D02*
X69950000Y-85452300D01*
X64168400Y-81588700D02*
X64168400Y-14181700D01*
%TO.N,/COL0*%
X15115000Y-61385000D02*
X15115000Y-75615000D01*
X15173300Y-78326700D02*
X16500000Y-77000000D01*
X16500000Y-94000000D02*
X15173300Y-92673300D01*
X16500000Y-60000000D02*
X15115000Y-61385000D01*
X50827400Y-29555800D02*
X50827400Y-8325900D01*
X15173300Y-92673300D02*
X15173300Y-78326700D01*
X15115000Y-58615000D02*
X16500000Y-60000000D01*
X58380000Y-4100000D02*
X55053300Y-4100000D01*
X15115000Y-44385000D02*
X15115000Y-58615000D01*
X16500000Y-43000000D02*
X15115000Y-44385000D01*
X50827400Y-8325900D02*
X55053300Y-4100000D01*
X15115000Y-75615000D02*
X16500000Y-77000000D01*
%TD*%
M02*
