%TF.GenerationSoftware,KiCad,Pcbnew,10.0.2*%
%TF.CreationDate,2026-06-02T07:31:47-04:00*%
%TF.ProjectId,baby-remote,62616279-2d72-4656-9d6f-74652e6b6963,rev?*%
%TF.SameCoordinates,Original*%
%TF.FileFunction,Soldermask,Top*%
%TF.FilePolarity,Negative*%
%FSLAX46Y46*%
G04 Gerber Fmt 4.6, Leading zero omitted, Abs format (unit mm)*
G04 Created by KiCad (PCBNEW 10.0.2) date 2026-06-02 07:31:47*
%MOMM*%
%LPD*%
G01*
G04 APERTURE LIST*
G04 Aperture macros list*
%AMRoundRect*
0 Rectangle with rounded corners*
0 $1 Rounding radius*
0 $2 $3 $4 $5 $6 $7 $8 $9 X,Y pos of 4 corners*
0 Add a 4 corners polygon primitive as box body*
4,1,4,$2,$3,$4,$5,$6,$7,$8,$9,$2,$3,0*
0 Add four circle primitives for the rounded corners*
1,1,$1+$1,$2,$3*
1,1,$1+$1,$4,$5*
1,1,$1+$1,$6,$7*
1,1,$1+$1,$8,$9*
0 Add four rect primitives between the rounded corners*
20,1,$1+$1,$2,$3,$4,$5,0*
20,1,$1+$1,$4,$5,$6,$7,0*
20,1,$1+$1,$6,$7,$8,$9,0*
20,1,$1+$1,$8,$9,$2,$3,0*%
G04 Aperture macros list end*
%ADD10C,2.000000*%
%ADD11RoundRect,0.090000X-0.660000X-0.360000X0.660000X-0.360000X0.660000X0.360000X-0.660000X0.360000X0*%
%ADD12RoundRect,0.102000X-3.000000X-0.952500X3.000000X-0.952500X3.000000X0.952500X-3.000000X0.952500X0*%
G04 APERTURE END LIST*
D10*
%TO.C,SW12*%
X67500000Y-72500000D03*
X74000000Y-72500000D03*
X67500000Y-77000000D03*
X74000000Y-77000000D03*
%TD*%
%TO.C,SW10*%
X33500000Y-72500000D03*
X40000000Y-72500000D03*
X33500000Y-77000000D03*
X40000000Y-77000000D03*
%TD*%
%TO.C,SW2*%
X33500000Y-38500000D03*
X40000000Y-38500000D03*
X33500000Y-43000000D03*
X40000000Y-43000000D03*
%TD*%
%TO.C,SW6*%
X33500000Y-55500000D03*
X40000000Y-55500000D03*
X33500000Y-60000000D03*
X40000000Y-60000000D03*
%TD*%
%TO.C,SW15*%
X50500000Y-89500000D03*
X57000000Y-89500000D03*
X50500000Y-94000000D03*
X57000000Y-94000000D03*
%TD*%
%TO.C,SW14*%
X33500000Y-89500000D03*
X40000000Y-89500000D03*
X33500000Y-94000000D03*
X40000000Y-94000000D03*
%TD*%
D11*
%TO.C,LED1*%
X65050000Y-87850000D03*
X65050000Y-91150000D03*
X69950000Y-91150000D03*
X69950000Y-87850000D03*
%TD*%
D10*
%TO.C,SW11*%
X50500000Y-72500000D03*
X57000000Y-72500000D03*
X50500000Y-77000000D03*
X57000000Y-77000000D03*
%TD*%
%TO.C,SW4*%
X67500000Y-38500000D03*
X74000000Y-38500000D03*
X67500000Y-43000000D03*
X74000000Y-43000000D03*
%TD*%
%TO.C,SW1*%
X16500000Y-38500000D03*
X23000000Y-38500000D03*
X16500000Y-43000000D03*
X23000000Y-43000000D03*
%TD*%
%TO.C,SW8*%
X67500000Y-55500000D03*
X74000000Y-55500000D03*
X67500000Y-60000000D03*
X74000000Y-60000000D03*
%TD*%
%TO.C,SW5*%
X16500000Y-55500000D03*
X23000000Y-55500000D03*
X16500000Y-60000000D03*
X23000000Y-60000000D03*
%TD*%
%TO.C,SW13*%
X16500000Y-89500000D03*
X23000000Y-89500000D03*
X16500000Y-94000000D03*
X23000000Y-94000000D03*
%TD*%
%TO.C,SW9*%
X16500000Y-72500000D03*
X23000000Y-72500000D03*
X16500000Y-77000000D03*
X23000000Y-77000000D03*
%TD*%
D12*
%TO.C,U1*%
X73620000Y-21880000D03*
X73620000Y-19340000D03*
X73620000Y-16800000D03*
X73620000Y-14260000D03*
X73620000Y-9180000D03*
X73620000Y-11720000D03*
X58380000Y-4100000D03*
X73620000Y-4100000D03*
X58380000Y-6640000D03*
X58380000Y-9180000D03*
X58380000Y-11720000D03*
X58380000Y-14260000D03*
X58380000Y-16800000D03*
X58380000Y-19340000D03*
X58380000Y-21880000D03*
X73620000Y-6640000D03*
%TD*%
D10*
%TO.C,SW7*%
X50500000Y-55500000D03*
X57000000Y-55500000D03*
X50500000Y-60000000D03*
X57000000Y-60000000D03*
%TD*%
%TO.C,SW3*%
X50500000Y-38500000D03*
X57000000Y-38500000D03*
X50500000Y-43000000D03*
X57000000Y-43000000D03*
%TD*%
M02*
