solid OpenSCAD_Model
  facet normal 0 0 -1
    outer loop
      vertex 1.1715728752538097 1.1715728752538097 0
      vertex 0.6741215507898191 1.7777190679215913 0
      vertex 1.7777190679215913 0.6741215507898191 0
    endloop
  endfacet
  facet normal 0 0 -1
    outer loop
      vertex 0.30448186995485305 2.4692662705396407 0
      vertex 0 4 0
      vertex 0.6741215507898191 1.7777190679215913 0
    endloop
  endfacet
  facet normal 0 0 -1
    outer loop
      vertex 0.30448186995485305 2.4692662705396407 0
      vertex 0.07685887838707828 3.2196387119354872 0
      vertex 0 4 0
    endloop
  endfacet
  facet normal 0 0 -1
    outer loop
      vertex 0.6741215507898191 1.7777190679215913 0
      vertex 4 0 0
      vertex 1.7777190679215913 0.6741215507898191 0
    endloop
  endfacet
  facet normal 0 0 -1
    outer loop
      vertex 1.7777190679215913 0.6741215507898191 0
      vertex 4 0 0
      vertex 2.4692662705396407 0.30448186995485305 0
    endloop
  endfacet
  facet normal 0 0 -1
    outer loop
      vertex 2.4692662705396407 0.30448186995485305 0
      vertex 4 0 0
      vertex 3.2196387119354872 0.07685887838707828 0
    endloop
  endfacet
  facet normal -0.7730104533627373 -0.634393284163645 0
    outer loop
      vertex 1.1715728752538097 1.1715728752538097 0
      vertex 1.1715728752538097 1.1715728752538097 13.2
      vertex 0.6741215507898191 1.7777190679215913 0
    endloop
  endfacet
  facet normal -0.8819212643483549 -0.4713967368259978 0
    outer loop
      vertex 0.30448186995485305 2.4692662705396407 0
      vertex 0.6741215507898191 1.7777190679215913 0
      vertex 0.6741215507898191 1.7777190679215913 13.2
    endloop
  endfacet
  facet normal -0.9569403357322089 -0.29028467725446216 0
    outer loop
      vertex 0.30448186995485305 2.4692662705396407 0
      vertex 0.30448186995485305 2.4692662705396407 13.2
      vertex 0.07685887838707828 3.2196387119354872 0
    endloop
  endfacet
  facet normal -0.634393284163645 -0.7730104533627373 0
    outer loop
      vertex 1.1715728752538097 1.1715728752538097 0
      vertex 1.7777190679215913 0.6741215507898191 0
      vertex 1.1715728752538097 1.1715728752538097 13.2
    endloop
  endfacet
  facet normal -0.4713967368259978 -0.8819212643483549 0
    outer loop
      vertex 1.7777190679215913 0.6741215507898191 0
      vertex 2.4692662705396407 0.30448186995485305 0
      vertex 2.4692662705396407 0.30448186995485305 13.2
    endloop
  endfacet
  facet normal -0.9951847266721968 -0.09801714032956073 0
    outer loop
      vertex 0.07685887838707828 3.2196387119354872 0
      vertex 0 4 13.2
      vertex 0 4 0
    endloop
  endfacet
  facet normal -0.29028467725446216 -0.9569403357322089 0
    outer loop
      vertex 2.4692662705396407 0.30448186995485305 0
      vertex 3.2196387119354872 0.07685887838707828 0
      vertex 3.2196387119354872 0.07685887838707828 13.2
    endloop
  endfacet
  facet normal -0.09801714032956073 -0.9951847266721968 0
    outer loop
      vertex 3.2196387119354872 0.07685887838707828 0
      vertex 4 0 0
      vertex 3.2196387119354872 0.07685887838707828 13.2
    endloop
  endfacet
  facet normal 0 0 -1
    outer loop
      vertex 0.6741215507898191 1.7777190679215913 0
      vertex 0 4 0
      vertex 0 100.8 0
    endloop
  endfacet
  facet normal 0 0 -1
    outer loop
      vertex 0.6741215507898191 1.7777190679215913 0
      vertex 83.62842712474618 1.1715728752538097 0
      vertex 4 0 0
    endloop
  endfacet
  facet normal 0 -1 0
    outer loop
      vertex 4 0 0
      vertex 60.900000000000006 0 6
      vertex 60.900000000000006 0 11
    endloop
  endfacet
  facet normal 0 0 -1
    outer loop
      vertex 0.6741215507898191 1.7777190679215913 0
      vertex 4 104.8 0
      vertex 84.8 4 0
    endloop
  endfacet
  facet normal -0.7730104533627373 -0.634393284163645 0
    outer loop
      vertex 0.6741215507898191 1.7777190679215913 0
      vertex 1.1715728752538097 1.1715728752538097 13.2
      vertex 0.6741215507898191 1.7777190679215913 13.2
    endloop
  endfacet
  facet normal -0.8819212643483549 -0.4713967368259978 0
    outer loop
      vertex 0.30448186995485305 2.4692662705396407 0
      vertex 0.6741215507898191 1.7777190679215913 13.2
      vertex 0.30448186995485305 2.4692662705396407 13.2
    endloop
  endfacet
  facet normal -0.9569403357322089 -0.29028467725446216 0
    outer loop
      vertex 0.07685887838707828 3.2196387119354872 0
      vertex 0.30448186995485305 2.4692662705396407 13.2
      vertex 0.07685887838707828 3.2196387119354872 13.2
    endloop
  endfacet
  facet normal -0.634393284163645 -0.7730104533627373 0
    outer loop
      vertex 1.7777190679215913 0.6741215507898191 0
      vertex 1.7777190679215913 0.6741215507898191 13.2
      vertex 1.1715728752538097 1.1715728752538097 13.2
    endloop
  endfacet
  facet normal -0.4713967368259978 -0.8819212643483549 0
    outer loop
      vertex 1.7777190679215913 0.6741215507898191 0
      vertex 2.4692662705396407 0.30448186995485305 13.2
      vertex 1.7777190679215913 0.6741215507898191 13.2
    endloop
  endfacet
  facet normal -0.9951847266721968 -0.09801714032956073 0
    outer loop
      vertex 0.07685887838707828 3.2196387119354872 0
      vertex 0.07685887838707828 3.2196387119354872 13.2
      vertex 0 4 13.2
    endloop
  endfacet
  facet normal -0.29028467725446216 -0.9569403357322089 0
    outer loop
      vertex 2.4692662705396407 0.30448186995485305 0
      vertex 3.2196387119354872 0.07685887838707828 13.2
      vertex 2.4692662705396407 0.30448186995485305 13.2
    endloop
  endfacet
  facet normal -0.09801714032956073 -0.9951847266721968 0
    outer loop
      vertex 4 0 0
      vertex 4 0 13.2
      vertex 3.2196387119354872 0.07685887838707828 13.2
    endloop
  endfacet
  facet normal 0 0 1
    outer loop
      vertex 1.1715728752538097 1.1715728752538097 13.2
      vertex 1.7777190679215913 0.6741215507898191 13.2
      vertex 0.6741215507898191 1.7777190679215913 13.2
    endloop
  endfacet
  facet normal 0 0 1
    outer loop
      vertex 0.30448186995485305 2.4692662705396407 13.2
      vertex 0.6741215507898191 1.7777190679215913 13.2
      vertex 0 4 13.2
    endloop
  endfacet
  facet normal 0 0 1
    outer loop
      vertex 0.30448186995485305 2.4692662705396407 13.2
      vertex 0 4 13.2
      vertex 0.07685887838707828 3.2196387119354872 13.2
    endloop
  endfacet
  facet normal 0 0 1
    outer loop
      vertex 0.6741215507898191 1.7777190679215913 13.2
      vertex 1.7777190679215913 0.6741215507898191 13.2
      vertex 4 0 13.2
    endloop
  endfacet
  facet normal 0 0 1
    outer loop
      vertex 0.6741215507898191 1.7777190679215913 13.2
      vertex 2.585786437626905 2.585786437626905 13.2
      vertex 2.3370607753949093 2.8888595339607956 13.2
    endloop
  endfacet
  facet normal 0 0 1
    outer loop
      vertex 0.6741215507898191 1.7777190679215913 13.2
      vertex 2.1522409349774265 3.2346331352698203 13.2
      vertex 2.038429439193539 3.6098193559677436 13.2
    endloop
  endfacet
  facet normal 0 0 1
    outer loop
      vertex 0.6741215507898191 1.7777190679215913 13.2
      vertex 2.038429439193539 3.6098193559677436 13.2
      vertex 2 4 13.2
    endloop
  endfacet
  facet normal 0 0 1
    outer loop
      vertex 0.6741215507898191 1.7777190679215913 13.2
      vertex 2.3370607753949093 2.8888595339607956 13.2
      vertex 2.1522409349774265 3.2346331352698203 13.2
    endloop
  endfacet
  facet normal 0 0 1
    outer loop
      vertex 0.6741215507898191 1.7777190679215913 13.2
      vertex 2.8888595339607956 2.3370607753949093 13.2
      vertex 2.585786437626905 2.585786437626905 13.2
    endloop
  endfacet
  facet normal 0 0 1
    outer loop
      vertex 0.6741215507898191 1.7777190679215913 13.2
      vertex 3.2346331352698203 2.1522409349774265 13.2
      vertex 2.8888595339607956 2.3370607753949093 13.2
    endloop
  endfacet
  facet normal 0 0 1
    outer loop
      vertex 0.6741215507898191 1.7777190679215913 13.2
      vertex 3.6098193559677436 2.038429439193539 13.2
      vertex 3.2346331352698203 2.1522409349774265 13.2
    endloop
  endfacet
  facet normal 0 0 1
    outer loop
      vertex 1.7777190679215913 0.6741215507898191 13.2
      vertex 2.4692662705396407 0.30448186995485305 13.2
      vertex 4 0 13.2
    endloop
  endfacet
  facet normal 0 0 1
    outer loop
      vertex 2.4692662705396407 0.30448186995485305 13.2
      vertex 3.2196387119354872 0.07685887838707828 13.2
      vertex 4 0 13.2
    endloop
  endfacet
  facet normal 0 0 1
    outer loop
      vertex 0.6741215507898191 1.7777190679215913 13.2
      vertex 4 2 13.2
      vertex 3.6098193559677436 2.038429439193539 13.2
    endloop
  endfacet
  facet normal -1 0 0
    outer loop
      vertex 0 4 0
      vertex 0 4 13.2
      vertex 0 100.8 13.2
    endloop
  endfacet
  facet normal 0 0 1
    outer loop
      vertex 0.6741215507898191 1.7777190679215913 13.2
      vertex 0 100.8 13.2
      vertex 0 4 13.2
    endloop
  endfacet
  facet normal 0 0 1
    outer loop
      vertex 0.6741215507898191 1.7777190679215913 13.2
      vertex 2 4 13.2
      vertex 2 100.8 13.2
    endloop
  endfacet
  facet normal 0 -1 0
    outer loop
      vertex 4 0 0
      vertex 60.900000000000006 0 11
      vertex 4 0 13.2
    endloop
  endfacet
  facet normal 0 0 1
    outer loop
      vertex 0.6741215507898191 1.7777190679215913 13.2
      vertex 4 0 13.2
      vertex 83.62842712474618 1.1715728752538097 13.2
    endloop
  endfacet
  facet normal 0 0 1
    outer loop
      vertex 0.6741215507898191 1.7777190679215913 13.2
      vertex 83.62842712474618 1.1715728752538097 13.2
      vertex 4 2 13.2
    endloop
  endfacet
  facet normal 0 0 -1
    outer loop
      vertex 0.6741215507898191 1.7777190679215913 0
      vertex 0 100.8 0
      vertex 4 104.8 0
    endloop
  endfacet
  facet normal -1 0 0
    outer loop
      vertex 0 4 0
      vertex 0 100.8 13.2
      vertex 0 100.8 0
    endloop
  endfacet
  facet normal 0 0 -1
    outer loop
      vertex 0 100.8 0
      vertex 0.07685887838707828 101.58036128806451 0
      vertex 0.30448186995485305 102.33073372946036 0
    endloop
  endfacet
  facet normal 0 0 -1
    outer loop
      vertex 0 100.8 0
      vertex 0.30448186995485305 102.33073372946036 0
      vertex 1.1715728752538097 103.62842712474618 0
    endloop
  endfacet
  facet normal 0 0 -1
    outer loop
      vertex 0.30448186995485305 102.33073372946036 0
      vertex 0.6741215507898191 103.0222809320784 0
      vertex 1.1715728752538097 103.62842712474618 0
    endloop
  endfacet
  facet normal 0 0 -1
    outer loop
      vertex 0 100.8 0
      vertex 1.1715728752538097 103.62842712474618 0
      vertex 4 104.8 0
    endloop
  endfacet
  facet normal 0 0 -1
    outer loop
      vertex 1.1715728752538097 103.62842712474618 0
      vertex 1.7777190679215913 104.12587844921018 0
      vertex 2.4692662705396407 104.49551813004514 0
    endloop
  endfacet
  facet normal 0 0 -1
    outer loop
      vertex 1.1715728752538097 103.62842712474618 0
      vertex 2.4692662705396407 104.49551813004514 0
      vertex 4 104.8 0
    endloop
  endfacet
  facet normal 0 0 -1
    outer loop
      vertex 2.4692662705396407 104.49551813004514 0
      vertex 3.2196387119354872 104.72314112161291 0
      vertex 4 104.8 0
    endloop
  endfacet
  facet normal -0.9951847266721968 0.09801714032956084 0
    outer loop
      vertex 0 100.8 0
      vertex 0.07685887838707828 101.58036128806451 13.2
      vertex 0.07685887838707828 101.58036128806451 0
    endloop
  endfacet
  facet normal -0.9569403357322097 0.2902846772544596 0
    outer loop
      vertex 0.07685887838707828 101.58036128806451 0
      vertex 0.07685887838707828 101.58036128806451 13.2
      vertex 0.30448186995485305 102.33073372946036 0
    endloop
  endfacet
  facet normal -0.8819212643483523 0.471396736826003 0
    outer loop
      vertex 0.30448186995485305 102.33073372946036 0
      vertex 0.6741215507898191 103.0222809320784 13.2
      vertex 0.6741215507898191 103.0222809320784 0
    endloop
  endfacet
  facet normal -0.7730104533627361 0.6343932841636465 0
    outer loop
      vertex 0.6741215507898191 103.0222809320784 0
      vertex 0.6741215507898191 103.0222809320784 13.2
      vertex 1.1715728752538097 103.62842712474618 0
    endloop
  endfacet
  facet normal -0.6343932841636485 0.7730104533627346 0
    outer loop
      vertex 1.1715728752538097 103.62842712474618 0
      vertex 1.1715728752538097 103.62842712474618 13.2
      vertex 1.7777190679215913 104.12587844921018 0
    endloop
  endfacet
  facet normal -0.47139673682599653 0.8819212643483556 0
    outer loop
      vertex 1.7777190679215913 104.12587844921018 0
      vertex 2.4692662705396407 104.49551813004514 13.2
      vertex 2.4692662705396407 104.49551813004514 0
    endloop
  endfacet
  facet normal -0.290284677254457 0.9569403357322106 0
    outer loop
      vertex 2.4692662705396407 104.49551813004514 0
      vertex 2.4692662705396407 104.49551813004514 13.2
      vertex 3.2196387119354872 104.72314112161291 0
    endloop
  endfacet
  facet normal -0.0980171403295697 0.9951847266721959 0
    outer loop
      vertex 3.2196387119354872 104.72314112161291 0
      vertex 4 104.8 13.2
      vertex 4 104.8 0
    endloop
  endfacet
  facet normal 0 0 1
    outer loop
      vertex 0.6741215507898191 1.7777190679215913 13.2
      vertex 1.1715728752538097 103.62842712474618 13.2
      vertex 0 100.8 13.2
    endloop
  endfacet
  facet normal 0 0 1
    outer loop
      vertex 0.6741215507898191 1.7777190679215913 13.2
      vertex 2 100.8 13.2
      vertex 1.1715728752538097 103.62842712474618 13.2
    endloop
  endfacet
  facet normal -0.9951847266721968 0.09801714032956084 0
    outer loop
      vertex 0 100.8 0
      vertex 0 100.8 13.2
      vertex 0.07685887838707828 101.58036128806451 13.2
    endloop
  endfacet
  facet normal -0.9569403357322097 0.2902846772544596 0
    outer loop
      vertex 0.30448186995485305 102.33073372946036 0
      vertex 0.07685887838707828 101.58036128806451 13.2
      vertex 0.30448186995485305 102.33073372946036 13.2
    endloop
  endfacet
  facet normal -0.8819212643483523 0.471396736826003 0
    outer loop
      vertex 0.30448186995485305 102.33073372946036 0
      vertex 0.30448186995485305 102.33073372946036 13.2
      vertex 0.6741215507898191 103.0222809320784 13.2
    endloop
  endfacet
  facet normal -0.7730104533627361 0.6343932841636465 0
    outer loop
      vertex 1.1715728752538097 103.62842712474618 0
      vertex 0.6741215507898191 103.0222809320784 13.2
      vertex 1.1715728752538097 103.62842712474618 13.2
    endloop
  endfacet
  facet normal -0.6343932841636485 0.7730104533627346 0
    outer loop
      vertex 1.7777190679215913 104.12587844921018 0
      vertex 1.1715728752538097 103.62842712474618 13.2
      vertex 1.7777190679215913 104.12587844921018 13.2
    endloop
  endfacet
  facet normal -0.47139673682599653 0.8819212643483556 0
    outer loop
      vertex 1.7777190679215913 104.12587844921018 0
      vertex 1.7777190679215913 104.12587844921018 13.2
      vertex 2.4692662705396407 104.49551813004514 13.2
    endloop
  endfacet
  facet normal -0.290284677254457 0.9569403357322106 0
    outer loop
      vertex 3.2196387119354872 104.72314112161291 0
      vertex 2.4692662705396407 104.49551813004514 13.2
      vertex 3.2196387119354872 104.72314112161291 13.2
    endloop
  endfacet
  facet normal -0.0980171403295697 0.9951847266721959 0
    outer loop
      vertex 3.2196387119354872 104.72314112161291 0
      vertex 3.2196387119354872 104.72314112161291 13.2
      vertex 4 104.8 13.2
    endloop
  endfacet
  facet normal 0 0 1
    outer loop
      vertex 0 100.8 13.2
      vertex 0.30448186995485305 102.33073372946036 13.2
      vertex 0.07685887838707828 101.58036128806451 13.2
    endloop
  endfacet
  facet normal 0 0 1
    outer loop
      vertex 0 100.8 13.2
      vertex 1.1715728752538097 103.62842712474618 13.2
      vertex 0.30448186995485305 102.33073372946036 13.2
    endloop
  endfacet
  facet normal 0 0 1
    outer loop
      vertex 0.30448186995485305 102.33073372946036 13.2
      vertex 1.1715728752538097 103.62842712474618 13.2
      vertex 0.6741215507898191 103.0222809320784 13.2
    endloop
  endfacet
  facet normal 0 0 1
    outer loop
      vertex 2 100.8 13.2
      vertex 2.038429439193539 101.19018064403225 13.2
      vertex 1.1715728752538097 103.62842712474618 13.2
    endloop
  endfacet
  facet normal 0 0 1
    outer loop
      vertex 2.038429439193539 101.19018064403225 13.2
      vertex 2.1522409349774265 101.56536686473018 13.2
      vertex 1.1715728752538097 103.62842712474618 13.2
    endloop
  endfacet
  facet normal 0 0 1
    outer loop
      vertex 1.1715728752538097 103.62842712474618 13.2
      vertex 2.1522409349774265 101.56536686473018 13.2
      vertex 2.3370607753949093 101.9111404660392 13.2
    endloop
  endfacet
  facet normal 0 0 1
    outer loop
      vertex 1.1715728752538097 103.62842712474618 13.2
      vertex 2.3370607753949093 101.9111404660392 13.2
      vertex 2.585786437626905 102.21421356237309 13.2
    endloop
  endfacet
  facet normal 0 0 1
    outer loop
      vertex 1.1715728752538097 103.62842712474618 13.2
      vertex 2.585786437626905 102.21421356237309 13.2
      vertex 2.8888595339607956 102.4629392246051 13.2
    endloop
  endfacet
  facet normal 0 0 1
    outer loop
      vertex 1.1715728752538097 103.62842712474618 13.2
      vertex 2.8888595339607956 102.4629392246051 13.2
      vertex 3.2346331352698203 102.64775906502257 13.2
    endloop
  endfacet
  facet normal 0 0 1
    outer loop
      vertex 1.1715728752538097 103.62842712474618 13.2
      vertex 2.4692662705396407 104.49551813004514 13.2
      vertex 1.7777190679215913 104.12587844921018 13.2
    endloop
  endfacet
  facet normal 0 0 1
    outer loop
      vertex 1.1715728752538097 103.62842712474618 13.2
      vertex 4 104.8 13.2
      vertex 2.4692662705396407 104.49551813004514 13.2
    endloop
  endfacet
  facet normal 0 0 1
    outer loop
      vertex 1.1715728752538097 103.62842712474618 13.2
      vertex 3.2346331352698203 102.64775906502257 13.2
      vertex 3.6098193559677436 102.76157056080646 13.2
    endloop
  endfacet
  facet normal 0 0 1
    outer loop
      vertex 1.1715728752538097 103.62842712474618 13.2
      vertex 3.6098193559677436 102.76157056080646 13.2
      vertex 4 102.8 13.2
    endloop
  endfacet
  facet normal 0 0 1
    outer loop
      vertex 2.4692662705396407 104.49551813004514 13.2
      vertex 4 104.8 13.2
      vertex 3.2196387119354872 104.72314112161291 13.2
    endloop
  endfacet
  facet normal 0 1 0
    outer loop
      vertex 4 104.8 0
      vertex 4 104.8 13.2
      vertex 80.8 104.8 13.2
    endloop
  endfacet
  facet normal 0 0 1
    outer loop
      vertex 1.1715728752538097 103.62842712474618 13.2
      vertex 80.8 104.8 13.2
      vertex 4 104.8 13.2
    endloop
  endfacet
  facet normal 0 0 1
    outer loop
      vertex 1.1715728752538097 103.62842712474618 13.2
      vertex 4 102.8 13.2
      vertex 84.12587844921018 103.0222809320784 13.2
    endloop
  endfacet
  facet normal 0 -1 0
    outer loop
      vertex 4 0 0
      vertex 80.8 0 0
      vertex 71.9 0 6
    endloop
  endfacet
  facet normal 0 0 -1
    outer loop
      vertex 4 0 0
      vertex 83.62842712474618 1.1715728752538097 0
      vertex 80.8 0 0
    endloop
  endfacet
  facet normal 0 0 -1
    outer loop
      vertex 0.6741215507898191 1.7777190679215913 0
      vertex 84.8 4 0
      vertex 83.62842712474618 1.1715728752538097 0
    endloop
  endfacet
  facet normal 0 -1 0
    outer loop
      vertex 4 0 0
      vertex 71.9 0 6
      vertex 60.900000000000006 0 6
    endloop
  endfacet
  facet normal 0 0 -1
    outer loop
      vertex 80.8 0 0
      vertex 82.33073372946036 0.30448186995485305 0
      vertex 81.58036128806451 0.07685887838707828 0
    endloop
  endfacet
  facet normal 0 0 -1
    outer loop
      vertex 80.8 0 0
      vertex 83.62842712474618 1.1715728752538097 0
      vertex 82.33073372946036 0.30448186995485305 0
    endloop
  endfacet
  facet normal 0 0 -1
    outer loop
      vertex 82.33073372946036 0.30448186995485305 0
      vertex 83.62842712474618 1.1715728752538097 0
      vertex 83.0222809320784 0.6741215507898191 0
    endloop
  endfacet
  facet normal 0 0 -1
    outer loop
      vertex 83.62842712474618 1.1715728752538097 0
      vertex 84.49551813004514 2.4692662705396407 0
      vertex 84.12587844921018 1.7777190679215913 0
    endloop
  endfacet
  facet normal 0 0 -1
    outer loop
      vertex 83.62842712474618 1.1715728752538097 0
      vertex 84.8 4 0
      vertex 84.49551813004514 2.4692662705396407 0
    endloop
  endfacet
  facet normal 0 0 -1
    outer loop
      vertex 84.49551813004514 2.4692662705396407 0
      vertex 84.8 4 0
      vertex 84.72314112161291 3.2196387119354872 0
    endloop
  endfacet
  facet normal 0.09801714032956084 -0.9951847266721968 0
    outer loop
      vertex 80.8 0 0
      vertex 81.58036128806451 0.07685887838707828 0
      vertex 81.58036128806451 0.07685887838707828 13.2
    endloop
  endfacet
  facet normal 0.2902846772544596 -0.9569403357322097 0
    outer loop
      vertex 81.58036128806451 0.07685887838707828 0
      vertex 82.33073372946036 0.30448186995485305 0
      vertex 81.58036128806451 0.07685887838707828 13.2
    endloop
  endfacet
  facet normal 0.471396736826003 -0.8819212643483523 0
    outer loop
      vertex 82.33073372946036 0.30448186995485305 0
      vertex 83.0222809320784 0.6741215507898191 0
      vertex 83.0222809320784 0.6741215507898191 13.2
    endloop
  endfacet
  facet normal 0.6343932841636465 -0.7730104533627361 0
    outer loop
      vertex 83.0222809320784 0.6741215507898191 0
      vertex 83.62842712474618 1.1715728752538097 0
      vertex 83.0222809320784 0.6741215507898191 13.2
    endloop
  endfacet
  facet normal 0.7730104533627346 -0.6343932841636485 0
    outer loop
      vertex 83.62842712474618 1.1715728752538097 0
      vertex 84.12587844921018 1.7777190679215913 0
      vertex 83.62842712474618 1.1715728752538097 13.2
    endloop
  endfacet
  facet normal 0.8819212643483556 -0.47139673682599653 0
    outer loop
      vertex 84.12587844921018 1.7777190679215913 0
      vertex 84.49551813004514 2.4692662705396407 0
      vertex 84.49551813004514 2.4692662705396407 13.2
    endloop
  endfacet
  facet normal 0.9569403357322106 -0.290284677254457 0
    outer loop
      vertex 84.49551813004514 2.4692662705396407 0
      vertex 84.72314112161291 3.2196387119354872 0
      vertex 84.72314112161291 3.2196387119354872 13.2
    endloop
  endfacet
  facet normal 0.9951847266721959 -0.0980171403295697 0
    outer loop
      vertex 84.72314112161291 3.2196387119354872 0
      vertex 84.8 4 0
      vertex 84.8 4 13.2
    endloop
  endfacet
  facet normal 0 -1 0
    outer loop
      vertex 80.8 0 0
      vertex 80.8 0 13.2
      vertex 71.9 0 6
    endloop
  endfacet
  facet normal 1 0 0
    outer loop
      vertex 84.8 4 0
      vertex 84.8 100.8 0
      vertex 84.8 4 13.2
    endloop
  endfacet
  facet normal 0 -1 0
    outer loop
      vertex 4 0 13.2
      vertex 60.900000000000006 0 11
      vertex 71.9 0 11
    endloop
  endfacet
  facet normal 0 -1 0
    outer loop
      vertex 4 0 13.2
      vertex 71.9 0 11
      vertex 80.8 0 13.2
    endloop
  endfacet
  facet normal 0 0 1
    outer loop
      vertex 4 0 13.2
      vertex 80.8 0 13.2
      vertex 83.62842712474618 1.1715728752538097 13.2
    endloop
  endfacet
  facet normal 0 0 1
    outer loop
      vertex 4 2 13.2
      vertex 83.62842712474618 1.1715728752538097 13.2
      vertex 80.8 2 13.2
    endloop
  endfacet
  facet normal 0.09801714032956084 -0.9951847266721968 0
    outer loop
      vertex 80.8 0 0
      vertex 81.58036128806451 0.07685887838707828 13.2
      vertex 80.8 0 13.2
    endloop
  endfacet
  facet normal 0.2902846772544596 -0.9569403357322097 0
    outer loop
      vertex 82.33073372946036 0.30448186995485305 0
      vertex 82.33073372946036 0.30448186995485305 13.2
      vertex 81.58036128806451 0.07685887838707828 13.2
    endloop
  endfacet
  facet normal 0.471396736826003 -0.8819212643483523 0
    outer loop
      vertex 82.33073372946036 0.30448186995485305 0
      vertex 83.0222809320784 0.6741215507898191 13.2
      vertex 82.33073372946036 0.30448186995485305 13.2
    endloop
  endfacet
  facet normal 0.6343932841636465 -0.7730104533627361 0
    outer loop
      vertex 83.62842712474618 1.1715728752538097 0
      vertex 83.62842712474618 1.1715728752538097 13.2
      vertex 83.0222809320784 0.6741215507898191 13.2
    endloop
  endfacet
  facet normal 0.7730104533627346 -0.6343932841636485 0
    outer loop
      vertex 84.12587844921018 1.7777190679215913 0
      vertex 84.12587844921018 1.7777190679215913 13.2
      vertex 83.62842712474618 1.1715728752538097 13.2
    endloop
  endfacet
  facet normal 0.8819212643483556 -0.47139673682599653 0
    outer loop
      vertex 84.12587844921018 1.7777190679215913 0
      vertex 84.49551813004514 2.4692662705396407 13.2
      vertex 84.12587844921018 1.7777190679215913 13.2
    endloop
  endfacet
  facet normal 0.9569403357322106 -0.290284677254457 0
    outer loop
      vertex 84.49551813004514 2.4692662705396407 0
      vertex 84.72314112161291 3.2196387119354872 13.2
      vertex 84.49551813004514 2.4692662705396407 13.2
    endloop
  endfacet
  facet normal 0.9951847266721959 -0.0980171403295697 0
    outer loop
      vertex 84.72314112161291 3.2196387119354872 0
      vertex 84.8 4 13.2
      vertex 84.72314112161291 3.2196387119354872 13.2
    endloop
  endfacet
  facet normal 0 -1 0
    outer loop
      vertex 71.9 0 6
      vertex 80.8 0 13.2
      vertex 71.9 0 11
    endloop
  endfacet
  facet normal 0 0 1
    outer loop
      vertex 80.8 0 13.2
      vertex 81.58036128806451 0.07685887838707828 13.2
      vertex 82.33073372946036 0.30448186995485305 13.2
    endloop
  endfacet
  facet normal 0 0 1
    outer loop
      vertex 80.8 2 13.2
      vertex 83.62842712474618 1.1715728752538097 13.2
      vertex 81.19018064403225 2.038429439193539 13.2
    endloop
  endfacet
  facet normal 0 0 1
    outer loop
      vertex 81.19018064403225 2.038429439193539 13.2
      vertex 83.62842712474618 1.1715728752538097 13.2
      vertex 81.56536686473018 2.1522409349774265 13.2
    endloop
  endfacet
  facet normal 0 0 1
    outer loop
      vertex 80.8 0 13.2
      vertex 82.33073372946036 0.30448186995485305 13.2
      vertex 83.62842712474618 1.1715728752538097 13.2
    endloop
  endfacet
  facet normal 0 0 1
    outer loop
      vertex 82.33073372946036 0.30448186995485305 13.2
      vertex 83.0222809320784 0.6741215507898191 13.2
      vertex 83.62842712474618 1.1715728752538097 13.2
    endloop
  endfacet
  facet normal 0 0 1
    outer loop
      vertex 81.56536686473018 2.1522409349774265 13.2
      vertex 83.62842712474618 1.1715728752538097 13.2
      vertex 81.9111404660392 2.3370607753949093 13.2
    endloop
  endfacet
  facet normal 0 0 1
    outer loop
      vertex 81.9111404660392 2.3370607753949093 13.2
      vertex 83.62842712474618 1.1715728752538097 13.2
      vertex 82.21421356237309 2.585786437626905 13.2
    endloop
  endfacet
  facet normal 0 0 1
    outer loop
      vertex 82.21421356237309 2.585786437626905 13.2
      vertex 83.62842712474618 1.1715728752538097 13.2
      vertex 82.4629392246051 2.8888595339607956 13.2
    endloop
  endfacet
  facet normal 0 0 1
    outer loop
      vertex 82.4629392246051 2.8888595339607956 13.2
      vertex 83.62842712474618 1.1715728752538097 13.2
      vertex 82.64775906502257 3.2346331352698203 13.2
    endloop
  endfacet
  facet normal 0 0 1
    outer loop
      vertex 82.64775906502257 3.2346331352698203 13.2
      vertex 83.62842712474618 1.1715728752538097 13.2
      vertex 82.76157056080646 3.6098193559677436 13.2
    endloop
  endfacet
  facet normal 0 0 1
    outer loop
      vertex 83.62842712474618 1.1715728752538097 13.2
      vertex 82.8 4 13.2
      vertex 82.76157056080646 3.6098193559677436 13.2
    endloop
  endfacet
  facet normal 0 0 1
    outer loop
      vertex 83.62842712474618 1.1715728752538097 13.2
      vertex 84.12587844921018 1.7777190679215913 13.2
      vertex 84.49551813004514 2.4692662705396407 13.2
    endloop
  endfacet
  facet normal 0 0 1
    outer loop
      vertex 83.62842712474618 1.1715728752538097 13.2
      vertex 84.49551813004514 2.4692662705396407 13.2
      vertex 84.8 4 13.2
    endloop
  endfacet
  facet normal 0 0 1
    outer loop
      vertex 84.49551813004514 2.4692662705396407 13.2
      vertex 84.72314112161291 3.2196387119354872 13.2
      vertex 84.8 4 13.2
    endloop
  endfacet
  facet normal 0 0 1
    outer loop
      vertex 83.62842712474618 1.1715728752538097 13.2
      vertex 84.12587844921018 103.0222809320784 13.2
      vertex 82.8 4 13.2
    endloop
  endfacet
  facet normal 0 0 1
    outer loop
      vertex 83.62842712474618 1.1715728752538097 13.2
      vertex 84.8 4 13.2
      vertex 84.12587844921018 103.0222809320784 13.2
    endloop
  endfacet
  facet normal 0 0 -1
    outer loop
      vertex 4 104.8 0
      vertex 84.12587844921018 103.0222809320784 0
      vertex 84.8 4 0
    endloop
  endfacet
  facet normal 0 0 -1
    outer loop
      vertex 4 104.8 0
      vertex 80.8 104.8 0
      vertex 84.12587844921018 103.0222809320784 0
    endloop
  endfacet
  facet normal 0 1 0
    outer loop
      vertex 4 104.8 0
      vertex 80.8 104.8 13.2
      vertex 80.8 104.8 0
    endloop
  endfacet
  facet normal 0 0 -1
    outer loop
      vertex 84.8 4 0
      vertex 84.12587844921018 103.0222809320784 0
      vertex 84.8 100.8 0
    endloop
  endfacet
  facet normal 0 0 -1
    outer loop
      vertex 80.8 104.8 0
      vertex 81.58036128806451 104.72314112161291 0
      vertex 82.33073372946036 104.49551813004514 0
    endloop
  endfacet
  facet normal 0 0 -1
    outer loop
      vertex 80.8 104.8 0
      vertex 82.33073372946036 104.49551813004514 0
      vertex 83.0222809320784 104.12587844921018 0
    endloop
  endfacet
  facet normal 0 0 -1
    outer loop
      vertex 80.8 104.8 0
      vertex 83.0222809320784 104.12587844921018 0
      vertex 84.12587844921018 103.0222809320784 0
    endloop
  endfacet
  facet normal 0 0 -1
    outer loop
      vertex 84.8 100.8 0
      vertex 84.49551813004514 102.33073372946036 0
      vertex 84.72314112161291 101.58036128806451 0
    endloop
  endfacet
  facet normal 0 0 -1
    outer loop
      vertex 84.8 100.8 0
      vertex 84.12587844921018 103.0222809320784 0
      vertex 84.49551813004514 102.33073372946036 0
    endloop
  endfacet
  facet normal 0 0 -1
    outer loop
      vertex 83.0222809320784 104.12587844921018 0
      vertex 83.62842712474618 103.62842712474618 0
      vertex 84.12587844921018 103.0222809320784 0
    endloop
  endfacet
  facet normal 0.09801714032956982 0.9951847266721959 0
    outer loop
      vertex 80.8 104.8 0
      vertex 81.58036128806451 104.72314112161291 13.2
      vertex 81.58036128806451 104.72314112161291 0
    endloop
  endfacet
  facet normal 0.29028467725445445 0.9569403357322113 0
    outer loop
      vertex 81.58036128806451 104.72314112161291 0
      vertex 81.58036128806451 104.72314112161291 13.2
      vertex 82.33073372946036 104.49551813004514 0
    endloop
  endfacet
  facet normal 0.9951847266721959 0.09801714032956982 0
    outer loop
      vertex 84.8 100.8 0
      vertex 84.72314112161291 101.58036128806451 0
      vertex 84.72314112161291 101.58036128806451 13.2
    endloop
  endfacet
  facet normal 0.4713967368260017 0.8819212643483529 0
    outer loop
      vertex 82.33073372946036 104.49551813004514 0
      vertex 82.33073372946036 104.49551813004514 13.2
      vertex 83.0222809320784 104.12587844921018 0
    endloop
  endfacet
  facet normal 0.6343932841636498 0.7730104533627333 0
    outer loop
      vertex 83.0222809320784 104.12587844921018 0
      vertex 83.62842712474618 103.62842712474618 13.2
      vertex 83.62842712474618 103.62842712474618 0
    endloop
  endfacet
  facet normal 0.9569403357322113 0.29028467725445445 0
    outer loop
      vertex 84.72314112161291 101.58036128806451 0
      vertex 84.49551813004514 102.33073372946036 0
      vertex 84.72314112161291 101.58036128806451 13.2
    endloop
  endfacet
  facet normal 0.8819212643483529 0.4713967368260017 0
    outer loop
      vertex 84.12587844921018 103.0222809320784 0
      vertex 84.12587844921018 103.0222809320784 13.2
      vertex 84.49551813004514 102.33073372946036 0
    endloop
  endfacet
  facet normal 0.7730104533627333 0.6343932841636498 0
    outer loop
      vertex 84.12587844921018 103.0222809320784 0
      vertex 83.62842712474618 103.62842712474618 0
      vertex 83.62842712474618 103.62842712474618 13.2
    endloop
  endfacet
  facet normal 0 0 1
    outer loop
      vertex 1.1715728752538097 103.62842712474618 13.2
      vertex 84.12587844921018 103.0222809320784 13.2
      vertex 80.8 104.8 13.2
    endloop
  endfacet
  facet normal 0 0 1
    outer loop
      vertex 4 102.8 13.2
      vertex 80.8 102.8 13.2
      vertex 84.12587844921018 103.0222809320784 13.2
    endloop
  endfacet
  facet normal 1 0 0
    outer loop
      vertex 84.8 4 13.2
      vertex 84.8 100.8 0
      vertex 84.8 100.8 13.2
    endloop
  endfacet
  facet normal 0 0 1
    outer loop
      vertex 82.8 4 13.2
      vertex 84.12587844921018 103.0222809320784 13.2
      vertex 82.8 100.8 13.2
    endloop
  endfacet
  facet normal 0 0 1
    outer loop
      vertex 84.8 4 13.2
      vertex 84.8 100.8 13.2
      vertex 84.12587844921018 103.0222809320784 13.2
    endloop
  endfacet
  facet normal 0.09801714032956982 0.9951847266721959 0
    outer loop
      vertex 80.8 104.8 0
      vertex 80.8 104.8 13.2
      vertex 81.58036128806451 104.72314112161291 13.2
    endloop
  endfacet
  facet normal 0.29028467725445445 0.9569403357322113 0
    outer loop
      vertex 82.33073372946036 104.49551813004514 0
      vertex 81.58036128806451 104.72314112161291 13.2
      vertex 82.33073372946036 104.49551813004514 13.2
    endloop
  endfacet
  facet normal 0.9951847266721959 0.09801714032956982 0
    outer loop
      vertex 84.8 100.8 0
      vertex 84.72314112161291 101.58036128806451 13.2
      vertex 84.8 100.8 13.2
    endloop
  endfacet
  facet normal 0.4713967368260017 0.8819212643483529 0
    outer loop
      vertex 83.0222809320784 104.12587844921018 0
      vertex 82.33073372946036 104.49551813004514 13.2
      vertex 83.0222809320784 104.12587844921018 13.2
    endloop
  endfacet
  facet normal 0.6343932841636498 0.7730104533627333 0
    outer loop
      vertex 83.0222809320784 104.12587844921018 0
      vertex 83.0222809320784 104.12587844921018 13.2
      vertex 83.62842712474618 103.62842712474618 13.2
    endloop
  endfacet
  facet normal 0.9569403357322113 0.29028467725445445 0
    outer loop
      vertex 84.49551813004514 102.33073372946036 0
      vertex 84.49551813004514 102.33073372946036 13.2
      vertex 84.72314112161291 101.58036128806451 13.2
    endloop
  endfacet
  facet normal 0.8819212643483529 0.4713967368260017 0
    outer loop
      vertex 84.49551813004514 102.33073372946036 0
      vertex 84.12587844921018 103.0222809320784 13.2
      vertex 84.49551813004514 102.33073372946036 13.2
    endloop
  endfacet
  facet normal 0.7730104533627333 0.6343932841636498 0
    outer loop
      vertex 84.12587844921018 103.0222809320784 0
      vertex 83.62842712474618 103.62842712474618 13.2
      vertex 84.12587844921018 103.0222809320784 13.2
    endloop
  endfacet
  facet normal 0 0 1
    outer loop
      vertex 80.8 102.8 13.2
      vertex 81.19018064403225 102.76157056080646 13.2
      vertex 84.12587844921018 103.0222809320784 13.2
    endloop
  endfacet
  facet normal 0 0 1
    outer loop
      vertex 80.8 104.8 13.2
      vertex 82.33073372946036 104.49551813004514 13.2
      vertex 81.58036128806451 104.72314112161291 13.2
    endloop
  endfacet
  facet normal 0 0 1
    outer loop
      vertex 81.19018064403225 102.76157056080646 13.2
      vertex 81.56536686473018 102.64775906502257 13.2
      vertex 84.12587844921018 103.0222809320784 13.2
    endloop
  endfacet
  facet normal 0 0 1
    outer loop
      vertex 81.56536686473018 102.64775906502257 13.2
      vertex 81.9111404660392 102.4629392246051 13.2
      vertex 84.12587844921018 103.0222809320784 13.2
    endloop
  endfacet
  facet normal 0 0 1
    outer loop
      vertex 81.9111404660392 102.4629392246051 13.2
      vertex 82.21421356237309 102.21421356237309 13.2
      vertex 84.12587844921018 103.0222809320784 13.2
    endloop
  endfacet
  facet normal 0 0 1
    outer loop
      vertex 82.4629392246051 101.9111404660392 13.2
      vertex 82.64775906502257 101.56536686473018 13.2
      vertex 84.12587844921018 103.0222809320784 13.2
    endloop
  endfacet
  facet normal 0 0 1
    outer loop
      vertex 82.8 100.8 13.2
      vertex 84.12587844921018 103.0222809320784 13.2
      vertex 82.76157056080646 101.19018064403225 13.2
    endloop
  endfacet
  facet normal 0 0 1
    outer loop
      vertex 82.76157056080646 101.19018064403225 13.2
      vertex 84.12587844921018 103.0222809320784 13.2
      vertex 82.64775906502257 101.56536686473018 13.2
    endloop
  endfacet
  facet normal 0 0 1
    outer loop
      vertex 82.4629392246051 101.9111404660392 13.2
      vertex 84.12587844921018 103.0222809320784 13.2
      vertex 82.21421356237309 102.21421356237309 13.2
    endloop
  endfacet
  facet normal 0 0 1
    outer loop
      vertex 80.8 104.8 13.2
      vertex 84.12587844921018 103.0222809320784 13.2
      vertex 82.33073372946036 104.49551813004514 13.2
    endloop
  endfacet
  facet normal 0 0 1
    outer loop
      vertex 82.33073372946036 104.49551813004514 13.2
      vertex 84.12587844921018 103.0222809320784 13.2
      vertex 83.0222809320784 104.12587844921018 13.2
    endloop
  endfacet
  facet normal 0 0 1
    outer loop
      vertex 84.12587844921018 103.0222809320784 13.2
      vertex 84.72314112161291 101.58036128806451 13.2
      vertex 84.49551813004514 102.33073372946036 13.2
    endloop
  endfacet
  facet normal 0 0 1
    outer loop
      vertex 84.8 100.8 13.2
      vertex 84.72314112161291 101.58036128806451 13.2
      vertex 84.12587844921018 103.0222809320784 13.2
    endloop
  endfacet
  facet normal 0 0 1
    outer loop
      vertex 83.0222809320784 104.12587844921018 13.2
      vertex 84.12587844921018 103.0222809320784 13.2
      vertex 83.62842712474618 103.62842712474618 13.2
    endloop
  endfacet
  facet normal 0 0 1
    outer loop
      vertex 2.585786437626905 2.585786437626905 5
      vertex 2.8888595339607956 2.3370607753949093 5
      vertex 2.3370607753949093 2.8888595339607956 5
    endloop
  endfacet
  facet normal 0 0 1
    outer loop
      vertex 2.1522409349774265 3.2346331352698203 5
      vertex 2 4 5
      vertex 2.038429439193539 3.6098193559677436 5
    endloop
  endfacet
  facet normal 0 0 1
    outer loop
      vertex 2.1522409349774265 3.2346331352698203 5
      vertex 2.3370607753949093 2.8888595339607956 5
      vertex 2 4 5
    endloop
  endfacet
  facet normal 0 0 1
    outer loop
      vertex 2.3370607753949093 2.8888595339607956 5
      vertex 2.8888595339607956 2.3370607753949093 5
      vertex 4 2 5
    endloop
  endfacet
  facet normal 0 0 1
    outer loop
      vertex 2.3370607753949093 2.8888595339607956 5
      vertex 3.5555438135843183 3.334824310157964 5
      vertex 3.434314575050762 3.434314575050762 5
    endloop
  endfacet
  facet normal 0 0 1
    outer loop
      vertex 2.3370607753949093 2.8888595339607956 5
      vertex 3.6938532541079283 3.260896373990971 5
      vertex 3.5555438135843183 3.334824310157964 5
    endloop
  endfacet
  facet normal 0 0 1
    outer loop
      vertex 2.3370607753949093 2.8888595339607956 5
      vertex 3.8439277423870974 3.215371775677416 5
      vertex 3.6938532541079283 3.260896373990971 5
    endloop
  endfacet
  facet normal 0 0 1
    outer loop
      vertex 2.8888595339607956 2.3370607753949093 5
      vertex 3.2346331352698203 2.1522409349774265 5
      vertex 4 2 5
    endloop
  endfacet
  facet normal 0 0 1
    outer loop
      vertex 3.2346331352698203 2.1522409349774265 5
      vertex 3.6098193559677436 2.038429439193539 5
      vertex 4 2 5
    endloop
  endfacet
  facet normal 0 0 1
    outer loop
      vertex 2.3370607753949093 2.8888595339607956 5
      vertex 4 3.2 5
      vertex 3.8439277423870974 3.215371775677416 5
    endloop
  endfacet
  facet normal 0 0 1
    outer loop
      vertex 2.3370607753949093 2.8888595339607956 5
      vertex 3.260896373990971 3.6938532541079283 5
      vertex 3.215371775677416 3.8439277423870974 5
    endloop
  endfacet
  facet normal 0 0 1
    outer loop
      vertex 2.3370607753949093 2.8888595339607956 5
      vertex 3.334824310157964 3.5555438135843183 5
      vertex 3.260896373990971 3.6938532541079283 5
    endloop
  endfacet
  facet normal 0 0 1
    outer loop
      vertex 2.3370607753949093 2.8888595339607956 5
      vertex 3.215371775677416 3.8439277423870974 5
      vertex 3.2 4 5
    endloop
  endfacet
  facet normal 0 0 1
    outer loop
      vertex 2.3370607753949093 2.8888595339607956 5
      vertex 3.434314575050762 3.434314575050762 5
      vertex 3.334824310157964 3.5555438135843183 5
    endloop
  endfacet
  facet normal 0 0 1
    outer loop
      vertex 2.3370607753949093 2.8888595339607956 5
      vertex 2 100.8 5
      vertex 2 4 5
    endloop
  endfacet
  facet normal 0 0 1
    outer loop
      vertex 2.3370607753949093 2.8888595339607956 5
      vertex 3.2 4 5
      vertex 3.2 100.8 5
    endloop
  endfacet
  facet normal 0 0 1
    outer loop
      vertex 2.3370607753949093 2.8888595339607956 5
      vertex 4 2 5
      vertex 82.4629392246051 2.8888595339607956 5
    endloop
  endfacet
  facet normal 0 0 1
    outer loop
      vertex 2.3370607753949093 2.8888595339607956 5
      vertex 82.4629392246051 2.8888595339607956 5
      vertex 4 3.2 5
    endloop
  endfacet
  facet normal 0.8819212643483553 0.4713967368259974 0
    outer loop
      vertex 2.1522409349774265 3.2346331352698203 5
      vertex 2.1522409349774265 3.2346331352698203 13.2
      vertex 2.3370607753949093 2.8888595339607956 5
    endloop
  endfacet
  facet normal 0.7730104533627365 0.634393284163646 0
    outer loop
      vertex 2.585786437626905 2.585786437626905 5
      vertex 2.3370607753949093 2.8888595339607956 5
      vertex 2.3370607753949093 2.8888595339607956 13.2
    endloop
  endfacet
  facet normal 0.9569403357322089 0.29028467725446216 0
    outer loop
      vertex 2.1522409349774265 3.2346331352698203 5
      vertex 2.038429439193539 3.6098193559677436 5
      vertex 2.038429439193539 3.6098193559677436 13.2
    endloop
  endfacet
  facet normal 0.9951847266721969 0.09801714032956076 0
    outer loop
      vertex 2.038429439193539 3.6098193559677436 5
      vertex 2 4 5
      vertex 2 4 13.2
    endloop
  endfacet
  facet normal 0.4713967368259974 0.8819212643483553 0
    outer loop
      vertex 2.8888595339607956 2.3370607753949093 5
      vertex 2.8888595339607956 2.3370607753949093 13.2
      vertex 3.2346331352698203 2.1522409349774265 5
    endloop
  endfacet
  facet normal 0.634393284163646 0.7730104533627365 0
    outer loop
      vertex 2.585786437626905 2.585786437626905 5
      vertex 2.585786437626905 2.585786437626905 13.2
      vertex 2.8888595339607956 2.3370607753949093 5
    endloop
  endfacet
  facet normal 0.29028467725446216 0.9569403357322089 0
    outer loop
      vertex 3.2346331352698203 2.1522409349774265 5
      vertex 3.2346331352698203 2.1522409349774265 13.2
      vertex 3.6098193559677436 2.038429439193539 5
    endloop
  endfacet
  facet normal 0.09801714032956076 0.9951847266721969 0
    outer loop
      vertex 3.6098193559677436 2.038429439193539 5
      vertex 3.6098193559677436 2.038429439193539 13.2
      vertex 4 2 5
    endloop
  endfacet
  facet normal 0.8819212643483553 0.4713967368259974 0
    outer loop
      vertex 2.3370607753949093 2.8888595339607956 5
      vertex 2.1522409349774265 3.2346331352698203 13.2
      vertex 2.3370607753949093 2.8888595339607956 13.2
    endloop
  endfacet
  facet normal 0.7730104533627365 0.634393284163646 0
    outer loop
      vertex 2.585786437626905 2.585786437626905 5
      vertex 2.3370607753949093 2.8888595339607956 13.2
      vertex 2.585786437626905 2.585786437626905 13.2
    endloop
  endfacet
  facet normal 0.9569403357322089 0.29028467725446216 0
    outer loop
      vertex 2.1522409349774265 3.2346331352698203 5
      vertex 2.038429439193539 3.6098193559677436 13.2
      vertex 2.1522409349774265 3.2346331352698203 13.2
    endloop
  endfacet
  facet normal 0.9951847266721969 0.09801714032956076 0
    outer loop
      vertex 2.038429439193539 3.6098193559677436 5
      vertex 2 4 13.2
      vertex 2.038429439193539 3.6098193559677436 13.2
    endloop
  endfacet
  facet normal 0.634393284163646 0.7730104533627365 0
    outer loop
      vertex 2.8888595339607956 2.3370607753949093 5
      vertex 2.585786437626905 2.585786437626905 13.2
      vertex 2.8888595339607956 2.3370607753949093 13.2
    endloop
  endfacet
  facet normal 0.4713967368259974 0.8819212643483553 0
    outer loop
      vertex 3.2346331352698203 2.1522409349774265 5
      vertex 2.8888595339607956 2.3370607753949093 13.2
      vertex 3.2346331352698203 2.1522409349774265 13.2
    endloop
  endfacet
  facet normal 0.29028467725446216 0.9569403357322089 0
    outer loop
      vertex 3.6098193559677436 2.038429439193539 5
      vertex 3.2346331352698203 2.1522409349774265 13.2
      vertex 3.6098193559677436 2.038429439193539 13.2
    endloop
  endfacet
  facet normal 0.09801714032956076 0.9951847266721969 0
    outer loop
      vertex 4 2 5
      vertex 3.6098193559677436 2.038429439193539 13.2
      vertex 4 2 13.2
    endloop
  endfacet
  facet normal 1 0 0
    outer loop
      vertex 2 4 5
      vertex 2 100.8 13.2
      vertex 2 4 13.2
    endloop
  endfacet
  facet normal 0 1 0
    outer loop
      vertex 4 2 5
      vertex 4 2 13.2
      vertex 60.900000000000006 2 6
    endloop
  endfacet
  facet normal 0 1 0
    outer loop
      vertex 4 2 13.2
      vertex 60.900000000000006 2 11
      vertex 60.900000000000006 2 6
    endloop
  endfacet
  facet normal 0 0 1
    outer loop
      vertex 2.3370607753949093 2.8888595339607956 5
      vertex 3.2 100.8 5
      vertex 2 100.8 5
    endloop
  endfacet
  facet normal 0 0 1
    outer loop
      vertex 2 100.8 5
      vertex 2.1522409349774265 101.56536686473018 5
      vertex 2.038429439193539 101.19018064403225 5
    endloop
  endfacet
  facet normal 0 0 1
    outer loop
      vertex 2 100.8 5
      vertex 2.585786437626905 102.21421356237309 5
      vertex 2.1522409349774265 101.56536686473018 5
    endloop
  endfacet
  facet normal 0 0 1
    outer loop
      vertex 2.1522409349774265 101.56536686473018 5
      vertex 2.585786437626905 102.21421356237309 5
      vertex 2.3370607753949093 101.9111404660392 5
    endloop
  endfacet
  facet normal 0 0 1
    outer loop
      vertex 2 100.8 5
      vertex 3.2 100.8 5
      vertex 3.215371775677416 100.9560722576129 5
    endloop
  endfacet
  facet normal 0 0 1
    outer loop
      vertex 2 100.8 5
      vertex 3.215371775677416 100.9560722576129 5
      vertex 3.260896373990971 101.10614674589208 5
    endloop
  endfacet
  facet normal 0 0 1
    outer loop
      vertex 2 100.8 5
      vertex 3.260896373990971 101.10614674589208 5
      vertex 3.334824310157964 101.24445618641568 5
    endloop
  endfacet
  facet normal 0 0 1
    outer loop
      vertex 2 100.8 5
      vertex 3.334824310157964 101.24445618641568 5
      vertex 3.434314575050762 101.36568542494923 5
    endloop
  endfacet
  facet normal 0 0 1
    outer loop
      vertex 2 100.8 5
      vertex 3.434314575050762 101.36568542494923 5
      vertex 3.5555438135843183 101.46517568984203 5
    endloop
  endfacet
  facet normal 0 0 1
    outer loop
      vertex 2 100.8 5
      vertex 4 102.8 5
      vertex 2.585786437626905 102.21421356237309 5
    endloop
  endfacet
  facet normal 0 0 1
    outer loop
      vertex 2 100.8 5
      vertex 3.5555438135843183 101.46517568984203 5
      vertex 4 102.8 5
    endloop
  endfacet
  facet normal 0 0 1
    outer loop
      vertex 2.585786437626905 102.21421356237309 5
      vertex 3.2346331352698203 102.64775906502257 5
      vertex 2.8888595339607956 102.4629392246051 5
    endloop
  endfacet
  facet normal 0 0 1
    outer loop
      vertex 2.585786437626905 102.21421356237309 5
      vertex 4 102.8 5
      vertex 3.2346331352698203 102.64775906502257 5
    endloop
  endfacet
  facet normal 0 0 1
    outer loop
      vertex 3.5555438135843183 101.46517568984203 5
      vertex 3.6938532541079283 101.53910362600902 5
      vertex 4 102.8 5
    endloop
  endfacet
  facet normal 0 0 1
    outer loop
      vertex 3.6938532541079283 101.53910362600902 5
      vertex 3.8439277423870974 101.58462822432259 5
      vertex 4 102.8 5
    endloop
  endfacet
  facet normal 0 0 1
    outer loop
      vertex 3.8439277423870974 101.58462822432259 5
      vertex 4 101.6 5
      vertex 4 102.8 5
    endloop
  endfacet
  facet normal 0 0 1
    outer loop
      vertex 3.2346331352698203 102.64775906502257 5
      vertex 4 102.8 5
      vertex 3.6098193559677436 102.76157056080646 5
    endloop
  endfacet
  facet normal 0 0 1
    outer loop
      vertex 4 101.6 5
      vertex 80.8 101.6 5
      vertex 4 102.8 5
    endloop
  endfacet
  facet normal 1 0 0
    outer loop
      vertex 2 4 5
      vertex 2 100.8 5
      vertex 2 100.8 13.2
    endloop
  endfacet
  facet normal 0.9951847266721969 -0.09801714032956087 0
    outer loop
      vertex 2 100.8 5
      vertex 2.038429439193539 101.19018064403225 5
      vertex 2.038429439193539 101.19018064403225 13.2
    endloop
  endfacet
  facet normal 0.9569403357322097 -0.29028467725445967 0
    outer loop
      vertex 2.038429439193539 101.19018064403225 5
      vertex 2.1522409349774265 101.56536686473018 5
      vertex 2.1522409349774265 101.56536686473018 13.2
    endloop
  endfacet
  facet normal 0.8819212643483524 -0.4713967368260025 0
    outer loop
      vertex 2.1522409349774265 101.56536686473018 5
      vertex 2.3370607753949093 101.9111404660392 5
      vertex 2.3370607753949093 101.9111404660392 13.2
    endloop
  endfacet
  facet normal 0.7730104533627356 -0.6343932841636472 0
    outer loop
      vertex 2.3370607753949093 101.9111404660392 5
      vertex 2.585786437626905 102.21421356237309 5
      vertex 2.585786437626905 102.21421356237309 13.2
    endloop
  endfacet
  facet normal 0.6343932841636596 -0.7730104533627254 0
    outer loop
      vertex 2.585786437626905 102.21421356237309 5
      vertex 2.8888595339607956 102.4629392246051 5
      vertex 2.8888595339607956 102.4629392246051 13.2
    endloop
  endfacet
  facet normal 0.4713967368259825 -0.8819212643483633 0
    outer loop
      vertex 2.8888595339607956 102.4629392246051 5
      vertex 3.2346331352698203 102.64775906502257 5
      vertex 3.2346331352698203 102.64775906502257 13.2
    endloop
  endfacet
  facet normal 0.2902846772544736 -0.9569403357322055 0
    outer loop
      vertex 3.2346331352698203 102.64775906502257 5
      vertex 3.6098193559677436 102.76157056080646 5
      vertex 3.6098193559677436 102.76157056080646 13.2
    endloop
  endfacet
  facet normal 0.09801714032955176 -0.9951847266721978 0
    outer loop
      vertex 3.6098193559677436 102.76157056080646 5
      vertex 4 102.8 5
      vertex 4 102.8 13.2
    endloop
  endfacet
  facet normal 0.9951847266721969 -0.09801714032956087 0
    outer loop
      vertex 2 100.8 5
      vertex 2.038429439193539 101.19018064403225 13.2
      vertex 2 100.8 13.2
    endloop
  endfacet
  facet normal 0.9569403357322097 -0.29028467725445967 0
    outer loop
      vertex 2.038429439193539 101.19018064403225 5
      vertex 2.1522409349774265 101.56536686473018 13.2
      vertex 2.038429439193539 101.19018064403225 13.2
    endloop
  endfacet
  facet normal 0.8819212643483524 -0.4713967368260025 0
    outer loop
      vertex 2.1522409349774265 101.56536686473018 5
      vertex 2.3370607753949093 101.9111404660392 13.2
      vertex 2.1522409349774265 101.56536686473018 13.2
    endloop
  endfacet
  facet normal 0.7730104533627356 -0.6343932841636472 0
    outer loop
      vertex 2.3370607753949093 101.9111404660392 5
      vertex 2.585786437626905 102.21421356237309 13.2
      vertex 2.3370607753949093 101.9111404660392 13.2
    endloop
  endfacet
  facet normal 0.6343932841636596 -0.7730104533627254 0
    outer loop
      vertex 2.585786437626905 102.21421356237309 5
      vertex 2.8888595339607956 102.4629392246051 13.2
      vertex 2.585786437626905 102.21421356237309 13.2
    endloop
  endfacet
  facet normal 0.4713967368259825 -0.8819212643483633 0
    outer loop
      vertex 2.8888595339607956 102.4629392246051 5
      vertex 3.2346331352698203 102.64775906502257 13.2
      vertex 2.8888595339607956 102.4629392246051 13.2
    endloop
  endfacet
  facet normal 0.2902846772544736 -0.9569403357322055 0
    outer loop
      vertex 3.2346331352698203 102.64775906502257 5
      vertex 3.6098193559677436 102.76157056080646 13.2
      vertex 3.2346331352698203 102.64775906502257 13.2
    endloop
  endfacet
  facet normal 0.09801714032955176 -0.9951847266721978 0
    outer loop
      vertex 3.6098193559677436 102.76157056080646 5
      vertex 4 102.8 13.2
      vertex 3.6098193559677436 102.76157056080646 13.2
    endloop
  endfacet
  facet normal 0 -1 0
    outer loop
      vertex 4 102.8 5
      vertex 80.8 102.8 13.2
      vertex 4 102.8 13.2
    endloop
  endfacet
  facet normal 0 1 0
    outer loop
      vertex 4 2 5
      vertex 60.900000000000006 2 6
      vertex 71.9 2 6
    endloop
  endfacet
  facet normal 0 1 0
    outer loop
      vertex 4 2 5
      vertex 71.9 2 6
      vertex 80.8 2 5
    endloop
  endfacet
  facet normal 0 0 1
    outer loop
      vertex 4 2 5
      vertex 80.8 2 5
      vertex 82.4629392246051 2.8888595339607956 5
    endloop
  endfacet
  facet normal 0 0 1
    outer loop
      vertex 4 3.2 5
      vertex 82.4629392246051 2.8888595339607956 5
      vertex 80.8 3.2 5
    endloop
  endfacet
  facet normal 0 0 1
    outer loop
      vertex 80.8 2 5
      vertex 81.19018064403225 2.038429439193539 5
      vertex 81.56536686473018 2.1522409349774265 5
    endloop
  endfacet
  facet normal 0 0 1
    outer loop
      vertex 80.8 3.2 5
      vertex 82.4629392246051 2.8888595339607956 5
      vertex 80.9560722576129 3.215371775677416 5
    endloop
  endfacet
  facet normal 0 0 1
    outer loop
      vertex 80.8 2 5
      vertex 81.56536686473018 2.1522409349774265 5
      vertex 82.4629392246051 2.8888595339607956 5
    endloop
  endfacet
  facet normal 0 0 1
    outer loop
      vertex 80.9560722576129 3.215371775677416 5
      vertex 82.4629392246051 2.8888595339607956 5
      vertex 81.10614674589208 3.260896373990971 5
    endloop
  endfacet
  facet normal 0 0 1
    outer loop
      vertex 81.10614674589208 3.260896373990971 5
      vertex 82.4629392246051 2.8888595339607956 5
      vertex 81.24445618641568 3.334824310157964 5
    endloop
  endfacet
  facet normal 0 0 1
    outer loop
      vertex 81.24445618641568 3.334824310157964 5
      vertex 82.4629392246051 2.8888595339607956 5
      vertex 81.36568542494923 3.434314575050762 5
    endloop
  endfacet
  facet normal 0 0 1
    outer loop
      vertex 81.56536686473018 2.1522409349774265 5
      vertex 81.9111404660392 2.3370607753949093 5
      vertex 82.4629392246051 2.8888595339607956 5
    endloop
  endfacet
  facet normal 0 0 1
    outer loop
      vertex 81.36568542494923 3.434314575050762 5
      vertex 82.4629392246051 2.8888595339607956 5
      vertex 81.46517568984203 3.5555438135843183 5
    endloop
  endfacet
  facet normal 0 0 1
    outer loop
      vertex 81.46517568984203 3.5555438135843183 5
      vertex 82.4629392246051 2.8888595339607956 5
      vertex 81.53910362600902 3.6938532541079283 5
    endloop
  endfacet
  facet normal 0 0 1
    outer loop
      vertex 81.53910362600902 3.6938532541079283 5
      vertex 82.4629392246051 2.8888595339607956 5
      vertex 81.58462822432259 3.8439277423870974 5
    endloop
  endfacet
  facet normal 0 0 1
    outer loop
      vertex 81.58462822432259 3.8439277423870974 5
      vertex 82.8 4 5
      vertex 81.6 4 5
    endloop
  endfacet
  facet normal 0 0 1
    outer loop
      vertex 81.9111404660392 2.3370607753949093 5
      vertex 82.21421356237309 2.585786437626905 5
      vertex 82.4629392246051 2.8888595339607956 5
    endloop
  endfacet
  facet normal 0 0 1
    outer loop
      vertex 82.4629392246051 2.8888595339607956 5
      vertex 82.64775906502257 3.2346331352698203 5
      vertex 82.76157056080646 3.6098193559677436 5
    endloop
  endfacet
  facet normal 0 0 1
    outer loop
      vertex 81.58462822432259 3.8439277423870974 5
      vertex 82.4629392246051 2.8888595339607956 5
      vertex 82.8 4 5
    endloop
  endfacet
  facet normal 0 0 1
    outer loop
      vertex 82.4629392246051 2.8888595339607956 5
      vertex 82.76157056080646 3.6098193559677436 5
      vertex 82.8 4 5
    endloop
  endfacet
  facet normal 0 0 1
    outer loop
      vertex 81.6 4 5
      vertex 82.8 4 5
      vertex 82.4629392246051 101.9111404660392 5
    endloop
  endfacet
  facet normal 0 1 0
    outer loop
      vertex 4 2 13.2
      vertex 71.9 2 11
      vertex 60.900000000000006 2 11
    endloop
  endfacet
  facet normal 0 1 0
    outer loop
      vertex 4 2 13.2
      vertex 80.8 2 13.2
      vertex 71.9 2 11
    endloop
  endfacet
  facet normal 0 1 0
    outer loop
      vertex 71.9 2 6
      vertex 71.9 2 11
      vertex 80.8 2 5
    endloop
  endfacet
  facet normal -0.09801714032956087 0.9951847266721969 0
    outer loop
      vertex 80.8 2 5
      vertex 80.8 2 13.2
      vertex 81.19018064403225 2.038429439193539 5
    endloop
  endfacet
  facet normal -0.29028467725445967 0.9569403357322097 0
    outer loop
      vertex 81.19018064403225 2.038429439193539 5
      vertex 81.19018064403225 2.038429439193539 13.2
      vertex 81.56536686473018 2.1522409349774265 5
    endloop
  endfacet
  facet normal -0.4713967368260025 0.8819212643483524 0
    outer loop
      vertex 81.56536686473018 2.1522409349774265 5
      vertex 81.56536686473018 2.1522409349774265 13.2
      vertex 81.9111404660392 2.3370607753949093 5
    endloop
  endfacet
  facet normal -0.6343932841636472 0.7730104533627356 0
    outer loop
      vertex 81.9111404660392 2.3370607753949093 5
      vertex 81.9111404660392 2.3370607753949093 13.2
      vertex 82.21421356237309 2.585786437626905 5
    endloop
  endfacet
  facet normal -0.7730104533627254 0.6343932841636596 0
    outer loop
      vertex 82.21421356237309 2.585786437626905 5
      vertex 82.21421356237309 2.585786437626905 13.2
      vertex 82.4629392246051 2.8888595339607956 5
    endloop
  endfacet
  facet normal -0.8819212643483633 0.4713967368259825 0
    outer loop
      vertex 82.4629392246051 2.8888595339607956 5
      vertex 82.4629392246051 2.8888595339607956 13.2
      vertex 82.64775906502257 3.2346331352698203 5
    endloop
  endfacet
  facet normal -0.9569403357322055 0.2902846772544736 0
    outer loop
      vertex 82.64775906502257 3.2346331352698203 5
      vertex 82.64775906502257 3.2346331352698203 13.2
      vertex 82.76157056080646 3.6098193559677436 5
    endloop
  endfacet
  facet normal -0.9951847266721978 0.09801714032955176 0
    outer loop
      vertex 82.76157056080646 3.6098193559677436 5
      vertex 82.76157056080646 3.6098193559677436 13.2
      vertex 82.8 4 5
    endloop
  endfacet
  facet normal 0 1 0
    outer loop
      vertex 80.8 2 5
      vertex 71.9 2 11
      vertex 80.8 2 13.2
    endloop
  endfacet
  facet normal -0.09801714032956087 0.9951847266721969 0
    outer loop
      vertex 81.19018064403225 2.038429439193539 5
      vertex 80.8 2 13.2
      vertex 81.19018064403225 2.038429439193539 13.2
    endloop
  endfacet
  facet normal -0.29028467725445967 0.9569403357322097 0
    outer loop
      vertex 81.56536686473018 2.1522409349774265 5
      vertex 81.19018064403225 2.038429439193539 13.2
      vertex 81.56536686473018 2.1522409349774265 13.2
    endloop
  endfacet
  facet normal -0.4713967368260025 0.8819212643483524 0
    outer loop
      vertex 81.9111404660392 2.3370607753949093 5
      vertex 81.56536686473018 2.1522409349774265 13.2
      vertex 81.9111404660392 2.3370607753949093 13.2
    endloop
  endfacet
  facet normal -0.6343932841636472 0.7730104533627356 0
    outer loop
      vertex 82.21421356237309 2.585786437626905 5
      vertex 81.9111404660392 2.3370607753949093 13.2
      vertex 82.21421356237309 2.585786437626905 13.2
    endloop
  endfacet
  facet normal -0.7730104533627254 0.6343932841636596 0
    outer loop
      vertex 82.4629392246051 2.8888595339607956 5
      vertex 82.21421356237309 2.585786437626905 13.2
      vertex 82.4629392246051 2.8888595339607956 13.2
    endloop
  endfacet
  facet normal -0.8819212643483633 0.4713967368259825 0
    outer loop
      vertex 82.64775906502257 3.2346331352698203 5
      vertex 82.4629392246051 2.8888595339607956 13.2
      vertex 82.64775906502257 3.2346331352698203 13.2
    endloop
  endfacet
  facet normal -0.9569403357322055 0.2902846772544736 0
    outer loop
      vertex 82.76157056080646 3.6098193559677436 5
      vertex 82.64775906502257 3.2346331352698203 13.2
      vertex 82.76157056080646 3.6098193559677436 13.2
    endloop
  endfacet
  facet normal -0.9951847266721978 0.09801714032955176 0
    outer loop
      vertex 82.8 4 5
      vertex 82.76157056080646 3.6098193559677436 13.2
      vertex 82.8 4 13.2
    endloop
  endfacet
  facet normal -1 0 0
    outer loop
      vertex 82.8 4 5
      vertex 82.8 4 13.2
      vertex 82.8 100.8 5
    endloop
  endfacet
  facet normal 0 0 1
    outer loop
      vertex 4 102.8 5
      vertex 80.8 101.6 5
      vertex 82.4629392246051 101.9111404660392 5
    endloop
  endfacet
  facet normal 0 0 1
    outer loop
      vertex 4 102.8 5
      vertex 82.4629392246051 101.9111404660392 5
      vertex 80.8 102.8 5
    endloop
  endfacet
  facet normal 0 0 1
    outer loop
      vertex 81.6 4 5
      vertex 82.4629392246051 101.9111404660392 5
      vertex 81.6 100.8 5
    endloop
  endfacet
  facet normal 0 0 1
    outer loop
      vertex 82.8 4 5
      vertex 82.8 100.8 5
      vertex 82.4629392246051 101.9111404660392 5
    endloop
  endfacet
  facet normal 0 0 1
    outer loop
      vertex 81.46517568984203 101.24445618641568 5
      vertex 82.4629392246051 101.9111404660392 5
      vertex 81.36568542494923 101.36568542494923 5
    endloop
  endfacet
  facet normal 0 0 1
    outer loop
      vertex 81.6 100.8 5
      vertex 82.4629392246051 101.9111404660392 5
      vertex 81.58462822432259 100.9560722576129 5
    endloop
  endfacet
  facet normal 0 0 1
    outer loop
      vertex 81.46517568984203 101.24445618641568 5
      vertex 81.53910362600902 101.10614674589208 5
      vertex 82.4629392246051 101.9111404660392 5
    endloop
  endfacet
  facet normal 0 0 1
    outer loop
      vertex 81.53910362600902 101.10614674589208 5
      vertex 81.58462822432259 100.9560722576129 5
      vertex 82.4629392246051 101.9111404660392 5
    endloop
  endfacet
  facet normal 0 0 1
    outer loop
      vertex 80.8 101.6 5
      vertex 80.9560722576129 101.58462822432259 5
      vertex 82.4629392246051 101.9111404660392 5
    endloop
  endfacet
  facet normal 0 0 1
    outer loop
      vertex 80.8 102.8 5
      vertex 81.56536686473018 102.64775906502257 5
      vertex 81.19018064403225 102.76157056080646 5
    endloop
  endfacet
  facet normal 0 0 1
    outer loop
      vertex 80.9560722576129 101.58462822432259 5
      vertex 81.10614674589208 101.53910362600902 5
      vertex 82.4629392246051 101.9111404660392 5
    endloop
  endfacet
  facet normal 0 0 1
    outer loop
      vertex 81.24445618641568 101.46517568984203 5
      vertex 82.4629392246051 101.9111404660392 5
      vertex 81.10614674589208 101.53910362600902 5
    endloop
  endfacet
  facet normal 0 0 1
    outer loop
      vertex 81.24445618641568 101.46517568984203 5
      vertex 81.36568542494923 101.36568542494923 5
      vertex 82.4629392246051 101.9111404660392 5
    endloop
  endfacet
  facet normal 0 0 1
    outer loop
      vertex 81.56536686473018 102.64775906502257 5
      vertex 82.4629392246051 101.9111404660392 5
      vertex 81.9111404660392 102.4629392246051 5
    endloop
  endfacet
  facet normal 0 0 1
    outer loop
      vertex 80.8 102.8 5
      vertex 82.4629392246051 101.9111404660392 5
      vertex 81.56536686473018 102.64775906502257 5
    endloop
  endfacet
  facet normal 0 0 1
    outer loop
      vertex 82.8 100.8 5
      vertex 82.76157056080646 101.19018064403225 5
      vertex 82.4629392246051 101.9111404660392 5
    endloop
  endfacet
  facet normal 0 0 1
    outer loop
      vertex 81.9111404660392 102.4629392246051 5
      vertex 82.4629392246051 101.9111404660392 5
      vertex 82.21421356237309 102.21421356237309 5
    endloop
  endfacet
  facet normal 0 0 1
    outer loop
      vertex 82.76157056080646 101.19018064403225 5
      vertex 82.64775906502257 101.56536686473018 5
      vertex 82.4629392246051 101.9111404660392 5
    endloop
  endfacet
  facet normal 0 -1 0
    outer loop
      vertex 4 102.8 5
      vertex 80.8 102.8 5
      vertex 80.8 102.8 13.2
    endloop
  endfacet
  facet normal -1 0 0
    outer loop
      vertex 82.8 4 13.2
      vertex 82.8 100.8 13.2
      vertex 82.8 100.8 5
    endloop
  endfacet
  facet normal -0.09801714032955187 -0.9951847266721977 0
    outer loop
      vertex 80.8 102.8 5
      vertex 81.19018064403225 102.76157056080646 5
      vertex 81.19018064403225 102.76157056080646 13.2
    endloop
  endfacet
  facet normal -0.29028467725447105 -0.9569403357322062 0
    outer loop
      vertex 81.19018064403225 102.76157056080646 5
      vertex 81.56536686473018 102.64775906502257 5
      vertex 81.56536686473018 102.64775906502257 13.2
    endloop
  endfacet
  facet normal -0.6343932841636607 -0.7730104533627244 0
    outer loop
      vertex 81.9111404660392 102.4629392246051 5
      vertex 82.21421356237309 102.21421356237309 5
      vertex 82.21421356237309 102.21421356237309 13.2
    endloop
  endfacet
  facet normal -0.47139673682598765 -0.8819212643483605 0
    outer loop
      vertex 81.56536686473018 102.64775906502257 5
      vertex 81.9111404660392 102.4629392246051 5
      vertex 81.9111404660392 102.4629392246051 13.2
    endloop
  endfacet
  facet normal -0.9951847266721977 -0.09801714032955187 0
    outer loop
      vertex 82.8 100.8 5
      vertex 82.8 100.8 13.2
      vertex 82.76157056080646 101.19018064403225 5
    endloop
  endfacet
  facet normal -0.9569403357322062 -0.29028467725447105 0
    outer loop
      vertex 82.76157056080646 101.19018064403225 5
      vertex 82.76157056080646 101.19018064403225 13.2
      vertex 82.64775906502257 101.56536686473018 5
    endloop
  endfacet
  facet normal -0.7730104533627244 -0.6343932841636607 0
    outer loop
      vertex 82.4629392246051 101.9111404660392 5
      vertex 82.4629392246051 101.9111404660392 13.2
      vertex 82.21421356237309 102.21421356237309 5
    endloop
  endfacet
  facet normal -0.8819212643483605 -0.47139673682598765 0
    outer loop
      vertex 82.4629392246051 101.9111404660392 5
      vertex 82.64775906502257 101.56536686473018 5
      vertex 82.64775906502257 101.56536686473018 13.2
    endloop
  endfacet
  facet normal -0.09801714032955187 -0.9951847266721977 0
    outer loop
      vertex 80.8 102.8 5
      vertex 81.19018064403225 102.76157056080646 13.2
      vertex 80.8 102.8 13.2
    endloop
  endfacet
  facet normal -0.29028467725447105 -0.9569403357322062 0
    outer loop
      vertex 81.19018064403225 102.76157056080646 5
      vertex 81.56536686473018 102.64775906502257 13.2
      vertex 81.19018064403225 102.76157056080646 13.2
    endloop
  endfacet
  facet normal -0.47139673682598765 -0.8819212643483605 0
    outer loop
      vertex 81.56536686473018 102.64775906502257 5
      vertex 81.9111404660392 102.4629392246051 13.2
      vertex 81.56536686473018 102.64775906502257 13.2
    endloop
  endfacet
  facet normal -0.6343932841636607 -0.7730104533627244 0
    outer loop
      vertex 81.9111404660392 102.4629392246051 5
      vertex 82.21421356237309 102.21421356237309 13.2
      vertex 81.9111404660392 102.4629392246051 13.2
    endloop
  endfacet
  facet normal -0.9951847266721977 -0.09801714032955187 0
    outer loop
      vertex 82.76157056080646 101.19018064403225 5
      vertex 82.8 100.8 13.2
      vertex 82.76157056080646 101.19018064403225 13.2
    endloop
  endfacet
  facet normal -0.9569403357322062 -0.29028467725447105 0
    outer loop
      vertex 82.64775906502257 101.56536686473018 5
      vertex 82.76157056080646 101.19018064403225 13.2
      vertex 82.64775906502257 101.56536686473018 13.2
    endloop
  endfacet
  facet normal -0.7730104533627244 -0.6343932841636607 0
    outer loop
      vertex 82.21421356237309 102.21421356237309 5
      vertex 82.4629392246051 101.9111404660392 13.2
      vertex 82.21421356237309 102.21421356237309 13.2
    endloop
  endfacet
  facet normal -0.8819212643483605 -0.47139673682598765 0
    outer loop
      vertex 82.4629392246051 101.9111404660392 5
      vertex 82.64775906502257 101.56536686473018 13.2
      vertex 82.4629392246051 101.9111404660392 13.2
    endloop
  endfacet
  facet normal 0 0 1
    outer loop
      vertex 3.6938532541079283 3.260896373990971 2
      vertex 3.8439277423870974 3.215371775677416 2
      vertex 4 3.2 2
    endloop
  endfacet
  facet normal 0 0 1
    outer loop
      vertex 3.215371775677416 3.8439277423870974 2
      vertex 3.260896373990971 3.6938532541079283 2
      vertex 3.2 4 2
    endloop
  endfacet
  facet normal 0 0 1
    outer loop
      vertex 3.260896373990971 3.6938532541079283 2
      vertex 3.334824310157964 3.5555438135843183 2
      vertex 3.2 4 2
    endloop
  endfacet
  facet normal 0 0 1
    outer loop
      vertex 3.6938532541079283 3.260896373990971 2
      vertex 3.334824310157964 3.5555438135843183 2
      vertex 3.434314575050762 3.434314575050762 2
    endloop
  endfacet
  facet normal 0 0 1
    outer loop
      vertex 3.6938532541079283 3.260896373990971 2
      vertex 3.434314575050762 3.434314575050762 2
      vertex 3.5555438135843183 3.334824310157964 2
    endloop
  endfacet
  facet normal 0 0 1
    outer loop
      vertex 3.6938532541079283 3.260896373990971 2
      vertex 4 3.2 2
      vertex 3.334824310157964 3.5555438135843183 2
    endloop
  endfacet
  facet normal 0.290284677254463 0.9569403357322087 0
    outer loop
      vertex 3.6938532541079283 3.260896373990971 2
      vertex 3.6938532541079283 3.260896373990971 5
      vertex 3.8439277423870974 3.215371775677416 2
    endloop
  endfacet
  facet normal 0.09801714032956073 0.9951847266721969 0
    outer loop
      vertex 3.8439277423870974 3.215371775677416 2
      vertex 3.8439277423870974 3.215371775677416 5
      vertex 4 3.2 2
    endloop
  endfacet
  facet normal 0.8819212643483554 0.4713967368259969 0
    outer loop
      vertex 3.260896373990971 3.6938532541079283 2
      vertex 3.260896373990971 3.6938532541079283 5
      vertex 3.334824310157964 3.5555438135843183 2
    endloop
  endfacet
  facet normal 0.9569403357322087 0.290284677254463 0
    outer loop
      vertex 3.215371775677416 3.8439277423870974 2
      vertex 3.215371775677416 3.8439277423870974 5
      vertex 3.260896373990971 3.6938532541079283 2
    endloop
  endfacet
  facet normal 0.9951847266721969 0.09801714032956073 0
    outer loop
      vertex 3.215371775677416 3.8439277423870974 2
      vertex 3.2 4 2
      vertex 3.2 4 5
    endloop
  endfacet
  facet normal 0.6343932841636462 0.7730104533627362 0
    outer loop
      vertex 3.434314575050762 3.434314575050762 2
      vertex 3.434314575050762 3.434314575050762 5
      vertex 3.5555438135843183 3.334824310157964 2
    endloop
  endfacet
  facet normal 0.7730104533627362 0.6343932841636462 0
    outer loop
      vertex 3.434314575050762 3.434314575050762 2
      vertex 3.334824310157964 3.5555438135843183 2
      vertex 3.334824310157964 3.5555438135843183 5
    endloop
  endfacet
  facet normal 0.4713967368259969 0.8819212643483554 0
    outer loop
      vertex 3.6938532541079283 3.260896373990971 2
      vertex 3.5555438135843183 3.334824310157964 2
      vertex 3.5555438135843183 3.334824310157964 5
    endloop
  endfacet
  facet normal 0.290284677254463 0.9569403357322087 0
    outer loop
      vertex 3.8439277423870974 3.215371775677416 2
      vertex 3.6938532541079283 3.260896373990971 5
      vertex 3.8439277423870974 3.215371775677416 5
    endloop
  endfacet
  facet normal 0.09801714032956073 0.9951847266721969 0
    outer loop
      vertex 4 3.2 2
      vertex 3.8439277423870974 3.215371775677416 5
      vertex 4 3.2 5
    endloop
  endfacet
  facet normal 0.8819212643483554 0.4713967368259969 0
    outer loop
      vertex 3.334824310157964 3.5555438135843183 2
      vertex 3.260896373990971 3.6938532541079283 5
      vertex 3.334824310157964 3.5555438135843183 5
    endloop
  endfacet
  facet normal 0.9569403357322087 0.290284677254463 0
    outer loop
      vertex 3.260896373990971 3.6938532541079283 2
      vertex 3.215371775677416 3.8439277423870974 5
      vertex 3.260896373990971 3.6938532541079283 5
    endloop
  endfacet
  facet normal 0.9951847266721969 0.09801714032956073 0
    outer loop
      vertex 3.215371775677416 3.8439277423870974 2
      vertex 3.2 4 5
      vertex 3.215371775677416 3.8439277423870974 5
    endloop
  endfacet
  facet normal 0.7730104533627362 0.6343932841636462 0
    outer loop
      vertex 3.434314575050762 3.434314575050762 2
      vertex 3.334824310157964 3.5555438135843183 5
      vertex 3.434314575050762 3.434314575050762 5
    endloop
  endfacet
  facet normal 0.6343932841636462 0.7730104533627362 0
    outer loop
      vertex 3.5555438135843183 3.334824310157964 2
      vertex 3.434314575050762 3.434314575050762 5
      vertex 3.5555438135843183 3.334824310157964 5
    endloop
  endfacet
  facet normal 0.4713967368259969 0.8819212643483554 0
    outer loop
      vertex 3.6938532541079283 3.260896373990971 2
      vertex 3.5555438135843183 3.334824310157964 5
      vertex 3.6938532541079283 3.260896373990971 5
    endloop
  endfacet
  facet normal 0 0 1
    outer loop
      vertex 3.2 4 2
      vertex 3.334824310157964 3.5555438135843183 2
      vertex 3.2 100.8 2
    endloop
  endfacet
  facet normal 1 0 0
    outer loop
      vertex 3.2 4 2
      vertex 3.2 100.8 5
      vertex 3.2 4 5
    endloop
  endfacet
  facet normal 0 0 1
    outer loop
      vertex 4 3.2 2
      vertex 81.46517568984203 3.5555438135843183 2
      vertex 3.334824310157964 3.5555438135843183 2
    endloop
  endfacet
  facet normal 0 1 0
    outer loop
      vertex 4 3.2 2
      vertex 4 3.2 5
      vertex 80.8 3.2 2
    endloop
  endfacet
  facet normal 0 0 1
    outer loop
      vertex 3.334824310157964 3.5555438135843183 2
      vertex 81.6 4 2
      vertex 4 101.6 2
    endloop
  endfacet
  facet normal 0 0 1
    outer loop
      vertex 3.334824310157964 3.5555438135843183 2
      vertex 4 101.6 2
      vertex 3.2 100.8 2
    endloop
  endfacet
  facet normal 1 0 0
    outer loop
      vertex 3.2 4 2
      vertex 3.2 100.8 2
      vertex 3.2 100.8 5
    endloop
  endfacet
  facet normal 0 0 1
    outer loop
      vertex 3.2 100.8 2
      vertex 3.260896373990971 101.10614674589208 2
      vertex 3.215371775677416 100.9560722576129 2
    endloop
  endfacet
  facet normal 0 0 1
    outer loop
      vertex 3.2 100.8 2
      vertex 3.434314575050762 101.36568542494923 2
      vertex 3.260896373990971 101.10614674589208 2
    endloop
  endfacet
  facet normal 0 0 1
    outer loop
      vertex 3.260896373990971 101.10614674589208 2
      vertex 3.434314575050762 101.36568542494923 2
      vertex 3.334824310157964 101.24445618641568 2
    endloop
  endfacet
  facet normal 0 0 1
    outer loop
      vertex 3.2 100.8 2
      vertex 4 101.6 2
      vertex 3.434314575050762 101.36568542494923 2
    endloop
  endfacet
  facet normal 0 0 1
    outer loop
      vertex 3.434314575050762 101.36568542494923 2
      vertex 3.6938532541079283 101.53910362600902 2
      vertex 3.5555438135843183 101.46517568984203 2
    endloop
  endfacet
  facet normal 0 0 1
    outer loop
      vertex 3.434314575050762 101.36568542494923 2
      vertex 4 101.6 2
      vertex 3.6938532541079283 101.53910362600902 2
    endloop
  endfacet
  facet normal 0 0 1
    outer loop
      vertex 3.6938532541079283 101.53910362600902 2
      vertex 4 101.6 2
      vertex 3.8439277423870974 101.58462822432259 2
    endloop
  endfacet
  facet normal 0.995184726672197 -0.09801714032955908 0
    outer loop
      vertex 3.2 100.8 2
      vertex 3.215371775677416 100.9560722576129 2
      vertex 3.215371775677416 100.9560722576129 5
    endloop
  endfacet
  facet normal 0.956940335732211 -0.2902846772544551 0
    outer loop
      vertex 3.215371775677416 100.9560722576129 2
      vertex 3.260896373990971 101.10614674589208 2
      vertex 3.260896373990971 101.10614674589208 5
    endloop
  endfacet
  facet normal 0.8819212643483403 -0.4713967368260252 0
    outer loop
      vertex 3.260896373990971 101.10614674589208 2
      vertex 3.334824310157964 101.24445618641568 2
      vertex 3.334824310157964 101.24445618641568 5
    endloop
  endfacet
  facet normal 0.7730104533627432 -0.6343932841636379 0
    outer loop
      vertex 3.334824310157964 101.24445618641568 2
      vertex 3.434314575050762 101.36568542494923 2
      vertex 3.434314575050762 101.36568542494923 5
    endloop
  endfacet
  facet normal 0.6343932841636276 -0.7730104533627515 0
    outer loop
      vertex 3.434314575050762 101.36568542494923 2
      vertex 3.5555438135843183 101.46517568984203 2
      vertex 3.5555438135843183 101.46517568984203 5
    endloop
  endfacet
  facet normal 0.4713967368260102 -0.8819212643483484 0
    outer loop
      vertex 3.5555438135843183 101.46517568984203 2
      vertex 3.6938532541079283 101.53910362600902 2
      vertex 3.6938532541079283 101.53910362600902 5
    endloop
  endfacet
  facet normal 0.2902846772545071 -0.9569403357321953 0
    outer loop
      vertex 3.6938532541079283 101.53910362600902 2
      vertex 3.8439277423870974 101.58462822432259 2
      vertex 3.8439277423870974 101.58462822432259 5
    endloop
  endfacet
  facet normal 0.09801714032951586 -0.9951847266722013 0
    outer loop
      vertex 3.8439277423870974 101.58462822432259 2
      vertex 4 101.6 2
      vertex 4 101.6 5
    endloop
  endfacet
  facet normal 0.995184726672197 -0.09801714032955908 0
    outer loop
      vertex 3.2 100.8 2
      vertex 3.215371775677416 100.9560722576129 5
      vertex 3.2 100.8 5
    endloop
  endfacet
  facet normal 0.956940335732211 -0.2902846772544551 0
    outer loop
      vertex 3.215371775677416 100.9560722576129 2
      vertex 3.260896373990971 101.10614674589208 5
      vertex 3.215371775677416 100.9560722576129 5
    endloop
  endfacet
  facet normal 0.8819212643483403 -0.4713967368260252 0
    outer loop
      vertex 3.260896373990971 101.10614674589208 2
      vertex 3.334824310157964 101.24445618641568 5
      vertex 3.260896373990971 101.10614674589208 5
    endloop
  endfacet
  facet normal 0.7730104533627432 -0.6343932841636379 0
    outer loop
      vertex 3.334824310157964 101.24445618641568 2
      vertex 3.434314575050762 101.36568542494923 5
      vertex 3.334824310157964 101.24445618641568 5
    endloop
  endfacet
  facet normal 0.6343932841636276 -0.7730104533627515 0
    outer loop
      vertex 3.434314575050762 101.36568542494923 2
      vertex 3.5555438135843183 101.46517568984203 5
      vertex 3.434314575050762 101.36568542494923 5
    endloop
  endfacet
  facet normal 0.4713967368260102 -0.8819212643483484 0
    outer loop
      vertex 3.5555438135843183 101.46517568984203 2
      vertex 3.6938532541079283 101.53910362600902 5
      vertex 3.5555438135843183 101.46517568984203 5
    endloop
  endfacet
  facet normal 0.2902846772545071 -0.9569403357321953 0
    outer loop
      vertex 3.6938532541079283 101.53910362600902 2
      vertex 3.8439277423870974 101.58462822432259 5
      vertex 3.6938532541079283 101.53910362600902 5
    endloop
  endfacet
  facet normal 0.09801714032951586 -0.9951847266722013 0
    outer loop
      vertex 3.8439277423870974 101.58462822432259 2
      vertex 4 101.6 5
      vertex 3.8439277423870974 101.58462822432259 5
    endloop
  endfacet
  facet normal 0 -1 0
    outer loop
      vertex 4 101.6 2
      vertex 80.8 101.6 5
      vertex 4 101.6 5
    endloop
  endfacet
  facet normal 0 0 1
    outer loop
      vertex 4 3.2 2
      vertex 80.8 3.2 2
      vertex 81.46517568984203 3.5555438135843183 2
    endloop
  endfacet
  facet normal 0 0 1
    outer loop
      vertex 3.334824310157964 3.5555438135843183 2
      vertex 81.46517568984203 3.5555438135843183 2
      vertex 81.6 4 2
    endloop
  endfacet
  facet normal 0 1 0
    outer loop
      vertex 4 3.2 5
      vertex 80.8 3.2 5
      vertex 80.8 3.2 2
    endloop
  endfacet
  facet normal 0 0 1
    outer loop
      vertex 80.8 3.2 2
      vertex 80.9560722576129 3.215371775677416 2
      vertex 81.10614674589208 3.260896373990971 2
    endloop
  endfacet
  facet normal 0 0 1
    outer loop
      vertex 80.8 3.2 2
      vertex 81.10614674589208 3.260896373990971 2
      vertex 81.46517568984203 3.5555438135843183 2
    endloop
  endfacet
  facet normal 0 0 1
    outer loop
      vertex 81.10614674589208 3.260896373990971 2
      vertex 81.24445618641568 3.334824310157964 2
      vertex 81.46517568984203 3.5555438135843183 2
    endloop
  endfacet
  facet normal 0 0 1
    outer loop
      vertex 81.24445618641568 3.334824310157964 2
      vertex 81.36568542494923 3.434314575050762 2
      vertex 81.46517568984203 3.5555438135843183 2
    endloop
  endfacet
  facet normal 0 0 1
    outer loop
      vertex 81.46517568984203 3.5555438135843183 2
      vertex 81.53910362600902 3.6938532541079283 2
      vertex 81.58462822432259 3.8439277423870974 2
    endloop
  endfacet
  facet normal 0 0 1
    outer loop
      vertex 81.46517568984203 3.5555438135843183 2
      vertex 81.58462822432259 3.8439277423870974 2
      vertex 81.6 4 2
    endloop
  endfacet
  facet normal -0.09801714032955908 0.995184726672197 0
    outer loop
      vertex 80.8 3.2 2
      vertex 80.8 3.2 5
      vertex 80.9560722576129 3.215371775677416 2
    endloop
  endfacet
  facet normal -0.2902846772544551 0.956940335732211 0
    outer loop
      vertex 80.9560722576129 3.215371775677416 2
      vertex 80.9560722576129 3.215371775677416 5
      vertex 81.10614674589208 3.260896373990971 2
    endloop
  endfacet
  facet normal -0.4713967368260252 0.8819212643483403 0
    outer loop
      vertex 81.10614674589208 3.260896373990971 2
      vertex 81.10614674589208 3.260896373990971 5
      vertex 81.24445618641568 3.334824310157964 2
    endloop
  endfacet
  facet normal -0.6343932841636379 0.7730104533627432 0
    outer loop
      vertex 81.24445618641568 3.334824310157964 2
      vertex 81.24445618641568 3.334824310157964 5
      vertex 81.36568542494923 3.434314575050762 2
    endloop
  endfacet
  facet normal -0.7730104533627515 0.6343932841636276 0
    outer loop
      vertex 81.36568542494923 3.434314575050762 2
      vertex 81.36568542494923 3.434314575050762 5
      vertex 81.46517568984203 3.5555438135843183 2
    endloop
  endfacet
  facet normal -0.8819212643483484 0.4713967368260102 0
    outer loop
      vertex 81.46517568984203 3.5555438135843183 2
      vertex 81.46517568984203 3.5555438135843183 5
      vertex 81.53910362600902 3.6938532541079283 2
    endloop
  endfacet
  facet normal -0.9569403357321953 0.2902846772545071 0
    outer loop
      vertex 81.53910362600902 3.6938532541079283 2
      vertex 81.53910362600902 3.6938532541079283 5
      vertex 81.58462822432259 3.8439277423870974 2
    endloop
  endfacet
  facet normal -0.9951847266722013 0.09801714032951586 0
    outer loop
      vertex 81.58462822432259 3.8439277423870974 2
      vertex 81.58462822432259 3.8439277423870974 5
      vertex 81.6 4 2
    endloop
  endfacet
  facet normal -0.09801714032955908 0.995184726672197 0
    outer loop
      vertex 80.9560722576129 3.215371775677416 2
      vertex 80.8 3.2 5
      vertex 80.9560722576129 3.215371775677416 5
    endloop
  endfacet
  facet normal -0.2902846772544551 0.956940335732211 0
    outer loop
      vertex 81.10614674589208 3.260896373990971 2
      vertex 80.9560722576129 3.215371775677416 5
      vertex 81.10614674589208 3.260896373990971 5
    endloop
  endfacet
  facet normal -0.4713967368260252 0.8819212643483403 0
    outer loop
      vertex 81.24445618641568 3.334824310157964 2
      vertex 81.10614674589208 3.260896373990971 5
      vertex 81.24445618641568 3.334824310157964 5
    endloop
  endfacet
  facet normal -0.6343932841636379 0.7730104533627432 0
    outer loop
      vertex 81.36568542494923 3.434314575050762 2
      vertex 81.24445618641568 3.334824310157964 5
      vertex 81.36568542494923 3.434314575050762 5
    endloop
  endfacet
  facet normal -0.7730104533627515 0.6343932841636276 0
    outer loop
      vertex 81.46517568984203 3.5555438135843183 2
      vertex 81.36568542494923 3.434314575050762 5
      vertex 81.46517568984203 3.5555438135843183 5
    endloop
  endfacet
  facet normal -0.8819212643483484 0.4713967368260102 0
    outer loop
      vertex 81.53910362600902 3.6938532541079283 2
      vertex 81.46517568984203 3.5555438135843183 5
      vertex 81.53910362600902 3.6938532541079283 5
    endloop
  endfacet
  facet normal -0.9569403357321953 0.2902846772545071 0
    outer loop
      vertex 81.58462822432259 3.8439277423870974 2
      vertex 81.53910362600902 3.6938532541079283 5
      vertex 81.58462822432259 3.8439277423870974 5
    endloop
  endfacet
  facet normal -0.9951847266722013 0.09801714032951586 0
    outer loop
      vertex 81.6 4 2
      vertex 81.58462822432259 3.8439277423870974 5
      vertex 81.6 4 5
    endloop
  endfacet
  facet normal -1 0 0
    outer loop
      vertex 81.6 4 2
      vertex 81.6 4 5
      vertex 81.6 100.8 2
    endloop
  endfacet
  facet normal 0 0 1
    outer loop
      vertex 4 101.6 2
      vertex 81.6 4 2
      vertex 81.46517568984203 101.24445618641568 2
    endloop
  endfacet
  facet normal 0 0 1
    outer loop
      vertex 4 101.6 2
      vertex 81.46517568984203 101.24445618641568 2
      vertex 80.8 101.6 2
    endloop
  endfacet
  facet normal 0 -1 0
    outer loop
      vertex 4 101.6 2
      vertex 80.8 101.6 2
      vertex 80.8 101.6 5
    endloop
  endfacet
  facet normal 0 0 1
    outer loop
      vertex 81.6 4 2
      vertex 81.6 100.8 2
      vertex 81.46517568984203 101.24445618641568 2
    endloop
  endfacet
  facet normal -1 0 0
    outer loop
      vertex 81.6 4 5
      vertex 81.6 100.8 5
      vertex 81.6 100.8 2
    endloop
  endfacet
  facet normal 0 0 1
    outer loop
      vertex 81.46517568984203 101.24445618641568 2
      vertex 81.10614674589208 101.53910362600902 2
      vertex 80.8 101.6 2
    endloop
  endfacet
  facet normal 0 0 1
    outer loop
      vertex 81.24445618641568 101.46517568984203 2
      vertex 81.10614674589208 101.53910362600902 2
      vertex 81.46517568984203 101.24445618641568 2
    endloop
  endfacet
  facet normal 0 0 1
    outer loop
      vertex 81.24445618641568 101.46517568984203 2
      vertex 81.46517568984203 101.24445618641568 2
      vertex 81.36568542494923 101.36568542494923 2
    endloop
  endfacet
  facet normal 0 0 1
    outer loop
      vertex 81.46517568984203 101.24445618641568 2
      vertex 81.6 100.8 2
      vertex 81.58462822432259 100.9560722576129 2
    endloop
  endfacet
  facet normal 0 0 1
    outer loop
      vertex 81.46517568984203 101.24445618641568 2
      vertex 81.58462822432259 100.9560722576129 2
      vertex 81.53910362600902 101.10614674589208 2
    endloop
  endfacet
  facet normal 0 0 1
    outer loop
      vertex 80.8 101.6 2
      vertex 81.10614674589208 101.53910362600902 2
      vertex 80.9560722576129 101.58462822432259 2
    endloop
  endfacet
  facet normal -0.4713967368260384 -0.8819212643483332 0
    outer loop
      vertex 81.24445618641568 101.46517568984203 2
      vertex 81.24445618641568 101.46517568984203 5
      vertex 81.10614674589208 101.53910362600902 2
    endloop
  endfacet
  facet normal -0.7730104533627584 -0.6343932841636193 0
    outer loop
      vertex 81.46517568984203 101.24445618641568 2
      vertex 81.46517568984203 101.24445618641568 5
      vertex 81.36568542494923 101.36568542494923 2
    endloop
  endfacet
  facet normal -0.6343932841636193 -0.7730104533627584 0
    outer loop
      vertex 81.24445618641568 101.46517568984203 2
      vertex 81.36568542494923 101.36568542494923 2
      vertex 81.36568542494923 101.36568542494923 5
    endloop
  endfacet
  facet normal -0.9951847266722016 -0.09801714032951421 0
    outer loop
      vertex 81.6 100.8 2
      vertex 81.6 100.8 5
      vertex 81.58462822432259 100.9560722576129 2
    endloop
  endfacet
  facet normal -0.9569403357321977 -0.29028467725449925 0
    outer loop
      vertex 81.53910362600902 101.10614674589208 2
      vertex 81.58462822432259 100.9560722576129 2
      vertex 81.58462822432259 100.9560722576129 5
    endloop
  endfacet
  facet normal -0.8819212643483332 -0.4713967368260384 0
    outer loop
      vertex 81.46517568984203 101.24445618641568 2
      vertex 81.53910362600902 101.10614674589208 2
      vertex 81.53910362600902 101.10614674589208 5
    endloop
  endfacet
  facet normal -0.09801714032951421 -0.9951847266722016 0
    outer loop
      vertex 80.8 101.6 2
      vertex 80.9560722576129 101.58462822432259 2
      vertex 80.9560722576129 101.58462822432259 5
    endloop
  endfacet
  facet normal -0.29028467725449925 -0.9569403357321977 0
    outer loop
      vertex 80.9560722576129 101.58462822432259 2
      vertex 81.10614674589208 101.53910362600902 2
      vertex 81.10614674589208 101.53910362600902 5
    endloop
  endfacet
  facet normal -0.4713967368260384 -0.8819212643483332 0
    outer loop
      vertex 81.10614674589208 101.53910362600902 2
      vertex 81.24445618641568 101.46517568984203 5
      vertex 81.10614674589208 101.53910362600902 5
    endloop
  endfacet
  facet normal -0.6343932841636193 -0.7730104533627584 0
    outer loop
      vertex 81.24445618641568 101.46517568984203 2
      vertex 81.36568542494923 101.36568542494923 5
      vertex 81.24445618641568 101.46517568984203 5
    endloop
  endfacet
  facet normal -0.7730104533627584 -0.6343932841636193 0
    outer loop
      vertex 81.36568542494923 101.36568542494923 2
      vertex 81.46517568984203 101.24445618641568 5
      vertex 81.36568542494923 101.36568542494923 5
    endloop
  endfacet
  facet normal -0.9951847266722016 -0.09801714032951421 0
    outer loop
      vertex 81.58462822432259 100.9560722576129 2
      vertex 81.6 100.8 5
      vertex 81.58462822432259 100.9560722576129 5
    endloop
  endfacet
  facet normal -0.9569403357321977 -0.29028467725449925 0
    outer loop
      vertex 81.53910362600902 101.10614674589208 2
      vertex 81.58462822432259 100.9560722576129 5
      vertex 81.53910362600902 101.10614674589208 5
    endloop
  endfacet
  facet normal -0.8819212643483332 -0.4713967368260384 0
    outer loop
      vertex 81.46517568984203 101.24445618641568 2
      vertex 81.53910362600902 101.10614674589208 5
      vertex 81.46517568984203 101.24445618641568 5
    endloop
  endfacet
  facet normal -0.09801714032951421 -0.9951847266722016 0
    outer loop
      vertex 80.8 101.6 2
      vertex 80.9560722576129 101.58462822432259 5
      vertex 80.8 101.6 5
    endloop
  endfacet
  facet normal -0.29028467725449925 -0.9569403357321977 0
    outer loop
      vertex 80.9560722576129 101.58462822432259 2
      vertex 81.10614674589208 101.53910362600902 5
      vertex 80.9560722576129 101.58462822432259 5
    endloop
  endfacet
  facet normal 0 0 1
    outer loop
      vertex 60.900000000000006 0 6
      vertex 71.9 2 6
      vertex 60.900000000000006 2 6
    endloop
  endfacet
  facet normal 0 0 1
    outer loop
      vertex 60.900000000000006 0 6
      vertex 71.9 0 6
      vertex 71.9 2 6
    endloop
  endfacet
  facet normal 1 0 0
    outer loop
      vertex 60.900000000000006 0 6
      vertex 60.900000000000006 2 6
      vertex 60.900000000000006 0 11
    endloop
  endfacet
  facet normal 1 0 0
    outer loop
      vertex 60.900000000000006 2 6
      vertex 60.900000000000006 2 11
      vertex 60.900000000000006 0 11
    endloop
  endfacet
  facet normal -1 0 0
    outer loop
      vertex 71.9 0 6
      vertex 71.9 2 11
      vertex 71.9 2 6
    endloop
  endfacet
  facet normal -1 0 0
    outer loop
      vertex 71.9 0 6
      vertex 71.9 0 11
      vertex 71.9 2 11
    endloop
  endfacet
  facet normal 0 0 -1
    outer loop
      vertex 60.900000000000006 0 11
      vertex 60.900000000000006 2 11
      vertex 71.9 0 11
    endloop
  endfacet
  facet normal 0 0 -1
    outer loop
      vertex 60.900000000000006 2 11
      vertex 71.9 2 11
      vertex 71.9 0 11
    endloop
  endfacet
endsolid OpenSCAD_Model
